<svg id="Слой_1" data-name="Слой 1" xmlns="http://www.w3.org/2000/svg" viewBox="0 0 281.11 281.11"><title>bio</title><path d="M90.41,203.47l25.36,25.36,5.69-5.7L96.1,197.77Z" style="fill:#185f8d"/><path d="M185,149.49l-25.36,25.35,5.69,5.7,25.36-25.36Z" style="fill:#185f8d"/><path d="M259.9,80.29,207,117.13,186.23,154A58.67,58.67,0,0,0,259.9,80.29Z" style="fill:#6ab7cc"/><path d="M113.72,82.9V262.64h26.83l5.37-190.51Z" style="fill:#ffcc75"/><path d="M140.55,72.13V262.64h26.83V82.9Z" style="fill:#f48205"/><path d="M140.55,18.47,129.37,45.3l11.18,5.37,11.18-5.37Z" style="fill:#274b6d"/><path d="M113.72,82.9a20.92,20.92,0,0,0,10.43,2.75,19.92,19.92,0,0,0,16.4-8.16A19.91,19.91,0,0,0,157,85.65a20.93,20.93,0,0,0,10.43-2.75v0L151.73,45.3H129.37L113.72,82.86Z" style="fill:#f2ebd9"/><path d="M259.9,80.29,186.23,154A58.66,58.66,0,0,1,259.9,80.29Z" style="fill:#329cb8"/><path d="M21.21,128.59,58,149.32l36.83,52.93a58.66,58.66,0,0,1-73.67-73.66Z" style="fill:#6ab7cc"/><path d="M21.21,128.59l73.67,73.66a58.66,58.66,0,0,0-73.67-73.66Z" style="fill:#329cb8"/></svg>