<svg id="Слой_1" data-name="Слой 1" xmlns="http://www.w3.org/2000/svg" viewBox="0 0 281.11 281.11"><title>chem</title><path d="M251.21,227.43l-78.77-106.3V41.4H108.66v79.73L29.89,227.43c-9.91,10.87-2.1,28.21,12.7,28.21H238.51C253.31,255.64,261.12,238.31,251.21,227.43Z" style="fill:#ebf0f3"/><path d="M179.77,48.59V25.47H101.33V48.59h78.44Z" style="fill:#e1e6e9"/><path d="M246.24,231.87l-.23-.26L211.46,185H69.64L35.09,231.62l-.23.26a9.92,9.92,0,0,0-1.77,11.06,10.15,10.15,0,0,0,9.5,6.1H238.51a10.15,10.15,0,0,0,9.5-6.1A9.92,9.92,0,0,0,246.24,231.87Z" style="fill:#e56353"/><path d="M113.8,168.86a4.25,4.25,0,1,0-4.3-4.25A4.28,4.28,0,0,0,113.8,168.86Z" style="fill:#e56353"/><path d="M134.08,119.4a3.7,3.7,0,1,0-3.74-3.7A3.72,3.72,0,0,0,134.08,119.4Z" style="fill:#e56353"/><path d="M153.21,76.63a2.91,2.91,0,1,0-2.94-2.91A2.93,2.93,0,0,0,153.21,76.63Z" style="fill:#e56353"/><path d="M176.12,163.58a3.62,3.62,0,1,0-3.66-3.62A3.64,3.64,0,0,0,176.12,163.58Z" style="fill:#e56353"/></svg>