<svg id="Слой_1" data-name="Слой 1" xmlns="http://www.w3.org/2000/svg" viewBox="0 0 281.11 281.11"><title>history</title><path d="M140.55,26.17a4.22,4.22,0,0,0-4.21,4.22V52.86h8.43V30.39A4.22,4.22,0,0,0,140.55,26.17Z" style="fill:#fcd462"/><path d="M251.54,86.58h-222v28.1h222Z" style="fill:#fcd462"/><path d="M257.16,221.23H23.95v22.48H257.16Z" style="fill:#f2ebd9"/><path d="M57.67,131.53H40.81v89.7H57.67Z" style="fill:#fcd462"/><path d="M103.32,131.53H86.47v89.7h16.86Z" style="fill:#fcd462"/><path d="M149,131.53H132.12v89.7H149Z" style="fill:#fcd462"/><path d="M194.64,131.53H177.78v89.7h16.86Z" style="fill:#fcd462"/><path d="M240.3,131.53H223.44v89.7H240.3Z" style="fill:#fcd462"/><path d="M140.55,47.24,23.95,69.72V86.58H257.16V69.72Z" style="fill:#f2ebd9"/><path d="M61.88,135.75H36.59a4.22,4.22,0,1,1,0-8.43H61.88a4.22,4.22,0,0,1,0,8.43Z" style="fill:#f48205"/><path d="M244.51,135.75H219.23a4.22,4.22,0,0,1,0-8.43h25.29a4.22,4.22,0,0,1,0,8.43Z" style="fill:#f48205"/><path d="M198.86,135.75H173.57a4.22,4.22,0,0,1,0-8.43h25.29a4.22,4.22,0,0,1,0,8.43Z" style="fill:#f48205"/><path d="M153.2,135.75H127.91a4.22,4.22,0,0,1,0-8.43H153.2a4.22,4.22,0,0,1,0,8.43Z" style="fill:#f48205"/><path d="M107.54,135.75H82.25a4.22,4.22,0,0,1,0-8.43h25.29a4.22,4.22,0,0,1,0,8.43Z" style="fill:#f48205"/><path d="M257.16,48.65a4.22,4.22,0,0,0-4.21,4.21v29.5H28.17V52.86a4.22,4.22,0,0,0-8.43,0V90.79H261.37V52.86A4.22,4.22,0,0,0,257.16,48.65Z" style="fill:#f48205"/><path d="M268.4,238.09H12.71v16.85H268.4Z" style="fill:#fcd462"/></svg>