<svg id="Слой_1" data-name="Слой 1" xmlns="http://www.w3.org/2000/svg" viewBox="0 0 281.11 281.11"><title>lang</title><path d="M182.1,27.4H99A9.6,9.6,0,0,0,89.4,37V120.1A9.61,9.61,0,0,0,99,129.71H182.1a9.61,9.61,0,0,0,9.61-9.61V37A9.6,9.6,0,0,0,182.1,27.4Z" style="fill:#f6c358"/><path d="M182.1,27.4H99A9.6,9.6,0,0,0,89.4,37v74.85A9.61,9.61,0,0,0,99,121.47H182.1a9.61,9.61,0,0,0,9.61-9.61V37A9.6,9.6,0,0,0,182.1,27.4Z" style="fill:#fcd462"/><path d="M120.09,152H37a9.58,9.58,0,0,0-9.61,9.55v82.63A9.58,9.58,0,0,0,37,253.71h83.09a9.58,9.58,0,0,0,9.61-9.55V161.52A9.58,9.58,0,0,0,120.09,152Z" style="fill:#1a7590"/><path d="M120.09,152H37a9.61,9.61,0,0,0-9.61,9.61v74.85A9.6,9.6,0,0,0,37,246h83.09a9.6,9.6,0,0,0,9.61-9.61V161.57A9.61,9.61,0,0,0,120.09,152Z" style="fill:#329cb8"/><path d="M244.11,151.4H161a9.61,9.61,0,0,0-9.61,9.61V244.1a9.61,9.61,0,0,0,9.61,9.61h83.09a9.61,9.61,0,0,0,9.61-9.61V161A9.61,9.61,0,0,0,244.11,151.4Z" style="fill:#d15241"/><path d="M244.11,151.4H161a9.61,9.61,0,0,0-9.61,9.61v74.85a9.6,9.6,0,0,0,9.61,9.61h83.09a9.6,9.6,0,0,0,9.61-9.61V161A9.61,9.61,0,0,0,244.11,151.4Z" style="fill:#e56353"/><path d="M158.13,107.6l-5.4-12.54H128.38L123,107.6H109.18l25.1-58.1h12.55l25.1,58.1ZM140.59,66.79l-7.31,16.87h14.54Z" style="fill:#dc8744"/><path d="M80.79,231.6H55.36V173.51H78a32.47,32.47,0,0,1,10.18,1.41,14.59,14.59,0,0,1,6.45,3.81,15,15,0,0,1,3.9,10.14q0,6.82-4.4,10.14A15.24,15.24,0,0,1,92,200.47c-.39.19-1.08.51-2.08.95a15.28,15.28,0,0,1,8.6,4.87,13.53,13.53,0,0,1,3.2,9.18,15.62,15.62,0,0,1-4.15,10.73Q92.76,231.6,80.79,231.6ZM68.33,197h6.15q5.4,0,8-1.16c1.74-.77,2.62-2.45,2.62-5s-.81-4.29-2.41-5.12-4.32-1.24-8.15-1.24H68.33Zm0,23.61h8.89c3.71,0,6.49-.47,8.35-1.37s2.79-2.72,2.79-5.4-1-4.47-2.95-5.32-5.11-1.29-9.43-1.29H68.33Z" style="fill:#fff"/><path d="M205.51,220.47a19.11,19.11,0,0,0,15.62-7.57l8.31,8.57q-9.89,11.14-23.31,11.13T184,224.12q-8.68-8.48-8.68-21.41a28.94,28.94,0,0,1,8.85-21.57,29.84,29.84,0,0,1,21.65-8.64,30.67,30.67,0,0,1,23.94,10.89l-8.06,9.13q-6.15-7.64-15.29-7.64a17.82,17.82,0,0,0-12.51,4.78c-3.46,3.19-5.19,7.46-5.19,12.88s1.64,9.74,4.9,13A16.19,16.19,0,0,0,205.51,220.47Z" style="fill:#fff"/></svg>