<svg id="Слой_1" data-name="Слой 1" xmlns="http://www.w3.org/2000/svg" viewBox="0 0 281.11 281.11"><title>litra</title><path d="M265.66,228.63H15.45a9.89,9.89,0,0,1-9.89-9.89V59.89A9.89,9.89,0,0,1,15.45,50H265.66a9.89,9.89,0,0,1,9.89,9.89V218.74A9.89,9.89,0,0,1,265.66,228.63Z" style="fill:#1a7590"/><path d="M120.23,212.56v16.07H11.7a6.15,6.15,0,0,1-6.15-6.15V56.15A6.15,6.15,0,0,1,11.7,50H22.09Z" style="fill:#1a7590"/><path d="M140.55,184.2H22.09v28.36H259V184.2Z" style="fill:#c6c6c6"/><path d="M221,223.59V250l-15.59-9.45L189.8,250V207.52H221Z" style="fill:#ffd74b"/><path d="M157.11,31.06a16.56,16.56,0,0,0-16.56,16.56A16.56,16.56,0,0,0,124,31.06H22.09V193.63H259V31.06Z" style="fill:#eaeaea"/><path d="M157.11,31.06V205.18H140.55V47.62A16.56,16.56,0,0,1,157.11,31.06Z" style="fill:#c6c6c6"/><path d="M110.31,59.45H46v9.45h64.26Z" style="fill:#868686"/><path d="M110.31,79.49H46v9.45h64.26Z" style="fill:#868686"/><path d="M110.31,99.53H46V109h64.26Z" style="fill:#868686"/><path d="M110.31,119.57H46V129h64.26Z" style="fill:#868686"/><path d="M110.31,139.6H46V149h64.26Z" style="fill:#868686"/><path d="M110.31,159.63H46v9.45h64.26Z" style="fill:#868686"/><path d="M235.06,59.45H170.79v9.45h64.26Z" style="fill:#868686"/><path d="M235.06,79.49H170.79v9.45h64.26Z" style="fill:#868686"/><path d="M235.06,99.53H170.79V109h64.26Z" style="fill:#868686"/><path d="M235.06,119.57H170.79V129h64.26Z" style="fill:#868686"/><path d="M235.06,139.6H170.79V149h64.26Z" style="fill:#868686"/><path d="M235.06,159.63H170.79v9.45h64.26Z" style="fill:#868686"/></svg>