<svg id="Слой_1" data-name="Слой 1" xmlns="http://www.w3.org/2000/svg" viewBox="0 0 281.11 281.11"><title>math</title><path d="M213.13,21.77H68A10.23,10.23,0,0,0,57.75,32V258.07A10.23,10.23,0,0,0,68,268.3H213.13a10.23,10.23,0,0,0,10.23-10.22V32A10.22,10.22,0,0,0,213.13,21.77Z" style="fill:#2f4859"/><path d="M213.13,12.81H68A10.23,10.23,0,0,0,57.75,23V249.11A10.23,10.23,0,0,0,68,259.33H213.13a10.23,10.23,0,0,0,10.23-10.23V23A10.23,10.23,0,0,0,213.13,12.81Z" style="fill:#64798a"/><path d="M71.2,87V42a4.18,4.18,0,0,1,4.17-4.18H205.73A4.18,4.18,0,0,1,209.91,42V87a4.17,4.17,0,0,1-4.17,4.17H75.37A4.18,4.18,0,0,1,71.2,87Z" style="fill:#ebf0f3"/><path d="M71.2,87V82.2H209.91V87a4.18,4.18,0,0,1-4.18,4.18H75.37A4.18,4.18,0,0,1,71.2,87Z" style="fill:#e1e6e9"/><path d="M87.93,131.38H73.11a1.91,1.91,0,0,1-1.92-1.92V114.65a1.92,1.92,0,0,1,1.92-1.92H87.93a1.92,1.92,0,0,1,1.92,1.92v14.82A1.91,1.91,0,0,1,87.93,131.38Z" style="fill:#fcd462"/><path d="M118,131.38H103.13a1.91,1.91,0,0,1-1.92-1.92V114.65a1.92,1.92,0,0,1,1.92-1.92H118a1.92,1.92,0,0,1,1.92,1.92v14.82A1.91,1.91,0,0,1,118,131.38Z" style="fill:#329cb8"/><path d="M148,131.38H133.14a1.91,1.91,0,0,1-1.92-1.92V114.65a1.92,1.92,0,0,1,1.92-1.92H148a1.92,1.92,0,0,1,1.92,1.92v14.82A1.92,1.92,0,0,1,148,131.38Z" style="fill:#e56353"/><path d="M178,131.38H163.16a1.91,1.91,0,0,1-1.92-1.92V114.65a1.92,1.92,0,0,1,1.92-1.92H178a1.92,1.92,0,0,1,1.92,1.92v14.82A1.92,1.92,0,0,1,178,131.38Z" style="fill:#e1e6e9"/><path d="M208,131.38H193.17a1.92,1.92,0,0,1-1.92-1.92V114.65a1.92,1.92,0,0,1,1.92-1.92H208a1.92,1.92,0,0,1,1.92,1.92v14.82A1.92,1.92,0,0,1,208,131.38Z" style="fill:#e1e6e9"/><path d="M87.93,159.76H73.11a1.91,1.91,0,0,1-1.92-1.92V143a1.92,1.92,0,0,1,1.92-1.92H87.93A1.92,1.92,0,0,1,89.85,143v14.82A1.91,1.91,0,0,1,87.93,159.76Z" style="fill:#e1e6e9"/><path d="M117.95,159.76H103.13a1.91,1.91,0,0,1-1.92-1.92V143a1.92,1.92,0,0,1,1.92-1.92h14.82a1.92,1.92,0,0,1,1.92,1.92v14.82A1.91,1.91,0,0,1,117.95,159.76Z" style="fill:#e1e6e9"/><path d="M148,159.76H133.14a1.91,1.91,0,0,1-1.92-1.92V143a1.92,1.92,0,0,1,1.92-1.92H148a1.92,1.92,0,0,1,1.92,1.92v14.82A1.92,1.92,0,0,1,148,159.76Z" style="fill:#e1e6e9"/><path d="M178,159.76H163.16a1.91,1.91,0,0,1-1.92-1.92V143a1.92,1.92,0,0,1,1.92-1.92H178a1.92,1.92,0,0,1,1.92,1.92v14.82A1.91,1.91,0,0,1,178,159.76Z" style="fill:#e1e6e9"/><path d="M208,159.76H193.17a1.91,1.91,0,0,1-1.92-1.92V143a1.92,1.92,0,0,1,1.92-1.92H208a1.92,1.92,0,0,1,1.92,1.92v14.82A1.91,1.91,0,0,1,208,159.76Z" style="fill:#e1e6e9"/><path d="M87.93,188.14H73.11a1.92,1.92,0,0,1-1.92-1.92V171.41a1.92,1.92,0,0,1,1.92-1.92H87.93a1.92,1.92,0,0,1,1.92,1.92v14.82A1.92,1.92,0,0,1,87.93,188.14Z" style="fill:#e1e6e9"/><path d="M117.95,188.14H103.13a1.92,1.92,0,0,1-1.92-1.92V171.41a1.92,1.92,0,0,1,1.92-1.92h14.82a1.92,1.92,0,0,1,1.92,1.92v14.82A1.92,1.92,0,0,1,117.95,188.14Z" style="fill:#e1e6e9"/><path d="M148,188.14H133.14a1.92,1.92,0,0,1-1.92-1.92V171.41a1.92,1.92,0,0,1,1.92-1.92H148a1.92,1.92,0,0,1,1.92,1.92v14.82A1.92,1.92,0,0,1,148,188.14Z" style="fill:#e1e6e9"/><path d="M178,188.14H163.16a1.92,1.92,0,0,1-1.92-1.92V171.41a1.92,1.92,0,0,1,1.92-1.92H178a1.92,1.92,0,0,1,1.92,1.92v14.82A1.92,1.92,0,0,1,178,188.14Z" style="fill:#e1e6e9"/><path d="M208,188.14H193.17a1.92,1.92,0,0,1-1.92-1.92V171.41a1.92,1.92,0,0,1,1.92-1.92H208a1.92,1.92,0,0,1,1.92,1.92v14.82A1.92,1.92,0,0,1,208,188.14Z" style="fill:#e1e6e9"/><path d="M87.93,216.53H73.11a1.92,1.92,0,0,1-1.92-1.92V199.79a1.92,1.92,0,0,1,1.92-1.92H87.93a1.92,1.92,0,0,1,1.92,1.92v14.82A1.91,1.91,0,0,1,87.93,216.53Z" style="fill:#e1e6e9"/><path d="M117.95,216.52H103.13a1.92,1.92,0,0,1-1.92-1.92V199.79a1.91,1.91,0,0,1,1.92-1.92h14.82a1.92,1.92,0,0,1,1.92,1.92v14.82A1.92,1.92,0,0,1,117.95,216.52Z" style="fill:#e1e6e9"/><path d="M148,216.53H133.14a1.92,1.92,0,0,1-1.92-1.92V199.79a1.92,1.92,0,0,1,1.92-1.92H148a1.92,1.92,0,0,1,1.92,1.92v14.82A1.92,1.92,0,0,1,148,216.53Z" style="fill:#e1e6e9"/><path d="M178,216.53H163.16a1.92,1.92,0,0,1-1.92-1.92V199.79a1.92,1.92,0,0,1,1.92-1.92H178a1.92,1.92,0,0,1,1.92,1.92v14.82A1.92,1.92,0,0,1,178,216.53Z" style="fill:#e1e6e9"/><path d="M87.93,244.91H73.11A1.92,1.92,0,0,1,71.2,243V228.17a1.92,1.92,0,0,1,1.92-1.92H87.93a1.92,1.92,0,0,1,1.92,1.92V243A1.92,1.92,0,0,1,87.93,244.91Z" style="fill:#e1e6e9"/><path d="M117.95,244.91H103.13a1.92,1.92,0,0,1-1.92-1.92V228.17a1.92,1.92,0,0,1,1.92-1.92h14.82a1.92,1.92,0,0,1,1.92,1.92V243A1.92,1.92,0,0,1,117.95,244.91Z" style="fill:#e1e6e9"/><path d="M148,244.91H133.14a1.92,1.92,0,0,1-1.92-1.92V228.17a1.92,1.92,0,0,1,1.92-1.92H148a1.92,1.92,0,0,1,1.92,1.92V243A1.92,1.92,0,0,1,148,244.91Z" style="fill:#e1e6e9"/><path d="M178,244.91H163.16a1.92,1.92,0,0,1-1.92-1.92V228.17a1.92,1.92,0,0,1,1.92-1.92H178a1.92,1.92,0,0,1,1.92,1.92V243A1.92,1.92,0,0,1,178,244.91Z" style="fill:#e1e6e9"/><path d="M208,244.91H193.17a1.92,1.92,0,0,1-1.92-1.92v-43.2a1.92,1.92,0,0,1,1.92-1.92H208a1.92,1.92,0,0,1,1.92,1.92V243A1.92,1.92,0,0,1,208,244.91Z" style="fill:#e56353"/></svg>