<svg id="Слой_1" data-name="Слой 1" xmlns="http://www.w3.org/2000/svg" viewBox="0 0 1219.47 977.78"><title>pattern</title><g style="opacity:0.75"><g style="opacity:0.5"><g style="opacity:0.400000005960465"><path d="M1034.26,311.68l-1.58-.83,1.83-3.48a1.41,1.41,0,0,0-.71-1.85l-28.48-15a7.1,7.1,0,0,0-5.65-.48,7.13,7.13,0,0,0-3.61-4.38l-28.48-14.94a1.4,1.4,0,0,0-1.93.46l-1.83,3.48-1.58-.83a3.24,3.24,0,0,0-4.44,1.07l-21.37,40.72a3.25,3.25,0,0,0,1.64,4.26l48.46,25.43-2.79,5.32a1.31,1.31,0,0,0,.14,1.37,1.74,1.74,0,0,0,1.34.68l4.7,0,2.65,3.88a1.67,1.67,0,0,0,1.32.72,1.31,1.31,0,0,0,1.2-.65l2.79-5.33,12.21,6.41a3.25,3.25,0,0,0,4.44-1.06l21.38-40.73A3.25,3.25,0,0,0,1034.26,311.68Zm-35-17.63a3.53,3.53,0,0,1,4.83-1.16l27.16,14.25-19.68,37.49-30.47-16Zm-31.59-20.28L994.84,288a3.53,3.53,0,0,1,1.79,4.63l-18.16,34.59-30.47-16Zm-20.89,39.81,30.47,16L976,331.89l-30.47-16Zm21.5,19.26-29-15.23a.42.42,0,0,1-.22-.55l21.38-40.73a.43.43,0,0,1,.58-.14l1.58.83-20.28,38.65a1.41,1.41,0,0,0,.71,1.85l26.11,13.7Zm11.36,6-8.72-4.57.85-1.62,8.72,4.58Zm8.08,4.25-5.44-2.86.85-1.62,5.44,2.86Zm5.79,10.16h0l-1.7-2.49a1.69,1.69,0,0,0-1.37-.72l-3,0,3.78-7.2L997.3,346l-3.78,7.21Zm-14.84-19.93,1.22-2.33,30.47,16-1.22,2.32Zm33.21,22a.43.43,0,0,1-.58.14L999.1,349l.85-1.62,9.31,4.89a1.41,1.41,0,0,0,1.93-.47l20.28-38.64,1.58.83a.42.42,0,0,1,.21.56l-21.38,40.72Z" style="fill:#1a7590"/></g><g style="opacity:0.400000005960465"><path d="M700.17,504.16l-1.58-.83,1.83-3.48a1.41,1.41,0,0,0-.71-1.85l-28.48-15a7.1,7.1,0,0,0-5.65-.48,7.13,7.13,0,0,0-3.61-4.38l-28.48-14.94a1.4,1.4,0,0,0-1.93.46l-1.83,3.48-1.58-.83a3.24,3.24,0,0,0-4.44,1.07l-21.37,40.72a3.25,3.25,0,0,0,1.64,4.26l48.46,25.43-2.79,5.32a1.31,1.31,0,0,0,.14,1.37,1.74,1.74,0,0,0,1.34.68l4.7,0,2.65,3.88a1.67,1.67,0,0,0,1.32.72,1.31,1.31,0,0,0,1.2-.65l2.79-5.33L676,550.21a3.25,3.25,0,0,0,4.44-1.06l21.38-40.73A3.25,3.25,0,0,0,700.17,504.16Zm-35-17.63a3.53,3.53,0,0,1,4.83-1.16l27.16,14.25-19.68,37.49-30.47-16Zm-31.59-20.28,27.16,14.26a3.53,3.53,0,0,1,1.79,4.63l-18.16,34.59-30.47-16ZM612.7,506.06l30.47,16-1.22,2.32-30.47-16Zm21.5,19.26-29-15.23a.42.42,0,0,1-.22-.55l21.38-40.73a.43.43,0,0,1,.58-.14l1.58.83-20.28,38.65a1.41,1.41,0,0,0,.71,1.85l26.11,13.7Zm11.36,6-8.72-4.57.85-1.62,8.72,4.58Zm8.08,4.25-5.44-2.86.85-1.62,5.44,2.86Zm5.79,10.16h0l-1.7-2.49a1.7,1.7,0,0,0-1.37-.72l-3,0,3.78-7.21,6.08,3.19-3.78,7.21Zm-14.84-19.93,1.22-2.33,30.47,16-1.22,2.32Zm33.21,22a.43.43,0,0,1-.58.14L665,541.49l.85-1.62,9.31,4.89a1.41,1.41,0,0,0,1.93-.47l20.28-38.64,1.58.83a.42.42,0,0,1,.21.56L677.8,547.76Z" style="fill:#1a7590"/></g><g style="opacity:0.400000005960465"><path d="M579.14,764.93l-1.35,1.18-2.59-3a1.41,1.41,0,0,0-2,0L549,784.36a7.1,7.1,0,0,0-2.48,5.09,7.12,7.12,0,0,0-5.38,1.8L517,812.46a1.4,1.4,0,0,0-.26,2l2.59,3L518,818.56a3.24,3.24,0,0,0-.6,4.52l30.32,34.59a3.25,3.25,0,0,0,4.56,0l41.15-36.07,4,4.52a1.29,1.29,0,0,0,1.32.35,1.64,1.64,0,0,0,1.12-1l1.67-4.39,4.57-1.08a1.67,1.67,0,0,0,1.15-1,1.29,1.29,0,0,0-.18-1.36l-4-4.52L613.43,804a3.25,3.25,0,0,0,.6-4.53l-30.32-34.58A3.24,3.24,0,0,0,579.14,764.93Zm-29,26.32a3.54,3.54,0,0,1,.65-4.93l23.07-20.22,27.91,31.84-25.87,22.68Zm-30.27,22.19,23.07-20.22a3.54,3.54,0,0,1,5,0l25.75,29.38-25.87,22.68Zm29.63,33.8,25.87-22.68,1.73,2L551.2,849.21Zm25.71-13.14-24.64,21.6a.43.43,0,0,1-.6,0l-30.32-34.59a.42.42,0,0,1,.08-.59l1.35-1.18,28.77,32.82a1.41,1.41,0,0,0,2,0L574,832.72Zm9.65-8.46-7.4,6.49-1.2-1.37,7.4-6.49Zm6.87-6-4.62,4-1.21-1.37,4.62-4Zm11.56-1.75h0l-2.93.69a1.7,1.7,0,0,0-1.16,1l-1.07,2.82-5.36-6.12,5.16-4.52,5.36,6.11Zm-23.93,6.69-1.73-2,25.87-22.68,1.73,2Zm32.47-23.08a.42.42,0,0,1-.08.59l-10.37,9.09-1.21-1.37,7.9-6.93a1.41,1.41,0,0,0,.26-2l-28.77-32.81,1.34-1.18a.41.41,0,0,1,.6,0l30.32,34.58Z" style="fill:#1a7590"/></g><g style="opacity:0.400000005960465"><path d="M974.12,183.23l-.78-1.61,3.44-1.68a1.38,1.38,0,0,0,.49-1.89l-14.1-28.91a7.21,7.21,0,0,0-4.21-3.77,7.19,7.19,0,0,0-.37-5.63l-14.1-28.91a1.39,1.39,0,0,0-1.8-.78l-3.44,1.67-.78-1.61a3.21,3.21,0,0,0-4.14-1.8L894.1,127.93A3.22,3.22,0,0,0,893,132.3l24,49.19L911.7,184a1.26,1.26,0,0,0-.66,1.17,1.72,1.72,0,0,0,.17.73,1.68,1.68,0,0,0,.5.61l3.75,2.79-.11,4.67a1.71,1.71,0,0,0,.64,1.36,1.24,1.24,0,0,0,1.33.2l5.26-2.56,6,12.39a3.23,3.23,0,0,0,4.14,1.81L973,187.6A3.22,3.22,0,0,0,974.12,183.23Zm-17.74-34.94a3.5,3.5,0,0,1,4.5,2l13.45,27.57-37,18.06L922.2,164.95Zm-13.53-35,13.45,27.57a3.5,3.5,0,0,1-1.23,4.76L920.9,162.27l-15.08-30.92Zm-39.32,19.18,15.08,30.93-2.29,1.12-15.08-30.93Zm6.09,28.18-14.36-29.46a.42.42,0,0,1,.15-.57L935.63,111a.43.43,0,0,1,.54.24l.78,1.61-38.17,18.61a1.4,1.4,0,0,0-.49,1.9l12.93,26.51Zm5.62,11.53-4.32-8.85,1.6-.78,4.32,8.85Zm4,8.2-2.7-5.52,1.6-.78,2.7,5.52ZM918,191.91h0l.07-3a1.71,1.71,0,0,0-.68-1.39l-2.4-1.79,7.11-3.47,3,6.17L918,191.91Zm-.42-24.72,2.29-1.12L935,197l-2.29,1.11Zm13.83,37.34a.41.41,0,0,1-.54-.23l-6-12.4,1.6-.78,4.61,9.45a1.39,1.39,0,0,0,1.8.78L971,182.74l.78,1.6a.42.42,0,0,1-.15.57l-40.23,19.62Z" style="fill:#1a7590"/></g><g style="opacity:0.400000005960465"><path d="M1112.59,490c0-5.54-5.84-10.46-16.07-13.6,2.4-10.42,1.06-17.94-3.74-20.71s-12-.17-19.81,7.12c-7.83-7.29-15-9.89-19.81-7.12-2.15,1.24-3.65,3.52-4.37,6.61a4.59,4.59,0,0,0-.27,9,48.2,48.2,0,0,0,.9,5.13c-10.23,3.14-16.07,8.06-16.07,13.6s5.84,10.45,16.07,13.59c-2.4,10.43-1.06,17.94,3.74,20.71a8.28,8.28,0,0,0,4.22,1.08,14.21,14.21,0,0,0,5.33-1.18,4.59,4.59,0,0,0,7.62-4.72c.88-.71,1.76-1.48,2.64-2.3,5.78,5.38,11.2,8.21,15.57,8.21a8.32,8.32,0,0,0,4.24-1.09c4.8-2.77,6.14-10.28,3.74-20.71a44.67,44.67,0,0,0,6.85-2.69,4.59,4.59,0,0,0,7.18-5.44A8.81,8.81,0,0,0,1112.59,490Zm-21.17-31.94c3.56,2.05,4.47,8.74,2.46,17.6a77.66,77.66,0,0,0-11.47-2,76.53,76.53,0,0,0-7.47-8.95C1081.61,458.57,1087.86,456,1091.42,458.08Zm-33,40.34c1,1.69,2,3.34,3.06,4.94a71.73,71.73,0,0,1-8.75-1.66,71.6,71.6,0,0,1,2.94-8.41Q1057,495.88,1058.43,498.42Zm-5.69-20.09a71.75,71.75,0,0,1,8.75-1.66c-1.05,1.6-2.08,3.25-3.06,5s-1.89,3.4-2.76,5.12A71.42,71.42,0,0,1,1052.74,478.33ZM1060.8,497c-1.33-2.3-2.56-4.67-3.67-7,1.1-2.37,2.34-4.73,3.67-7s2.77-4.57,4.26-6.69a93.22,93.22,0,0,1,15.85,0c1.48,2.12,2.91,4.37,4.26,6.69s2.56,4.67,3.67,7c-1.11,2.36-2.34,4.73-3.67,7s-2.78,4.58-4.26,6.7a95.36,95.36,0,0,1-15.85,0C1063.57,501.63,1062.14,499.38,1060.8,497Zm26.73,1.37q1.47-2.53,2.76-5.13a72.35,72.35,0,0,1,2.94,8.41,71.82,71.82,0,0,1-8.76,1.66C1085.52,501.76,1086.55,500.11,1087.53,498.42Zm2.76-11.68c-.86-1.72-1.78-3.44-2.76-5.12s-2-3.35-3.06-5a71.84,71.84,0,0,1,8.76,1.66A71.71,71.71,0,0,1,1090.28,486.74ZM1073,466.64a71.77,71.77,0,0,1,5.82,6.75,98.09,98.09,0,0,0-11.63,0A71.63,71.63,0,0,1,1073,466.64Zm-18.44-8.56c3.56-2.06,9.81.49,16.48,6.66a76.23,76.23,0,0,0-7.47,8.95,77.77,77.77,0,0,0-11.48,2,45.36,45.36,0,0,1-.81-4.56,4.59,4.59,0,0,0,.26-8.47A6.94,6.94,0,0,1,1054.54,458.08Zm-6.77,8.75a1.86,1.86,0,1,1,1.86,1.86A1.87,1.87,0,0,1,1047.77,466.83ZM1036.1,490c0-4.12,5.33-8.25,14-10.94a77.59,77.59,0,0,0,4,10.94,76.81,76.81,0,0,0-4,10.94C1041.43,498.26,1036.1,494.13,1036.1,490ZM1066,522.88a1.86,1.86,0,1,1,1.86-1.86A1.86,1.86,0,0,1,1066,522.88Zm2.7-5.57a4.58,4.58,0,0,0-7.28,3.71,4.66,4.66,0,0,0,.06.76c-2.17.85-4.84,1.39-6.94.18-3.56-2.06-4.47-8.75-2.47-17.61a76.43,76.43,0,0,0,11.48,2,77,77,0,0,0,7.47,8.94C1070.25,516,1069.47,516.69,1068.7,517.31Zm4.28-3.92a71.79,71.79,0,0,1-5.81-6.75c1.92.12,3.86.18,5.81.18s3.9-.06,5.82-.18A71.79,71.79,0,0,1,1073,513.39Zm18.45,8.57c-3.57,2.05-9.81-.5-16.48-6.67a77.25,77.25,0,0,0,7.47-8.94,76.1,76.1,0,0,0,11.47-2C1095.89,513.21,1095,519.9,1091.42,522Zm15-22.6a1.86,1.86,0,1,1,1.86-1.86A1.86,1.86,0,0,1,1106.43,499.36Zm2.21-5.88a4.59,4.59,0,0,0-6.8,4,4.24,4.24,0,0,0,.13,1.07,41.92,41.92,0,0,1-6.13,2.39,75.76,75.76,0,0,0-4-10.94,76.19,76.19,0,0,0,4-10.94c8.68,2.69,14,6.82,14,10.94A6,6,0,0,1,1108.64,493.48Z" style="fill:#1a7590"/></g><g style="opacity:0.400000005960465"><path d="M755.13,97.57c0-5.54-5.84-10.46-16.07-13.6,2.4-10.43,1.06-17.94-3.74-20.71s-12-.17-19.81,7.12c-7.83-7.29-15-9.89-19.81-7.12-2.15,1.24-3.65,3.51-4.37,6.61a4.59,4.59,0,0,0-.27,9A48.19,48.19,0,0,0,692,84C681.74,87.11,675.9,92,675.9,97.57S681.74,108,692,111.16c-2.4,10.43-1.06,17.94,3.73,20.71a8.28,8.28,0,0,0,4.22,1.07,14.18,14.18,0,0,0,5.33-1.17,4.59,4.59,0,0,0,7.62-4.72c.88-.71,1.76-1.48,2.64-2.3,5.78,5.38,11.2,8.2,15.57,8.2a8.31,8.31,0,0,0,4.24-1.08c4.8-2.77,6.14-10.28,3.74-20.71a44.69,44.69,0,0,0,6.85-2.69,4.59,4.59,0,0,0,7.65-3.42,4.55,4.55,0,0,0-.47-2A8.81,8.81,0,0,0,755.13,97.57ZM734,65.62c3.56,2.06,4.48,8.75,2.47,17.61a77.65,77.65,0,0,0-11.48-2,77.13,77.13,0,0,0-7.47-8.94C724.15,66.12,730.39,63.57,734,65.62ZM701,106c1,1.7,2,3.35,3.06,5a71.75,71.75,0,0,1-8.75-1.66,71.59,71.59,0,0,1,2.94-8.41C699.07,102.56,700,104.28,701,106Zm-5.69-20.08A71.73,71.73,0,0,1,704,84.22c-1.05,1.6-2.08,3.25-3.06,4.94s-1.9,3.41-2.76,5.13A71.42,71.42,0,0,1,695.27,85.88Zm8.06,18.72c-1.33-2.31-2.56-4.67-3.67-7,1.1-2.37,2.34-4.73,3.67-7s2.77-4.57,4.26-6.7a95.36,95.36,0,0,1,15.85,0c1.48,2.13,2.91,4.37,4.26,6.7s2.56,4.67,3.67,7c-1.11,2.36-2.34,4.72-3.67,7s-2.77,4.57-4.26,6.69a93.25,93.25,0,0,1-15.85,0C706.11,109.17,704.68,106.92,703.33,104.6ZM730.06,106q1.46-2.52,2.76-5.12a71.77,71.77,0,0,1,2.94,8.41,71.62,71.62,0,0,1-8.75,1.66C728.06,109.31,729.08,107.66,730.06,106Zm2.76-11.67c-.86-1.72-1.78-3.44-2.76-5.13s-2-3.34-3.06-4.94a71.64,71.64,0,0,1,8.75,1.66A71.6,71.6,0,0,1,732.82,94.29Zm-17.3-20.1a71.65,71.65,0,0,1,5.82,6.75,98.09,98.09,0,0,0-11.63,0A71.65,71.65,0,0,1,715.51,74.19Zm-18.44-8.57c3.56-2.05,9.81.5,16.48,6.67a77.13,77.13,0,0,0-7.47,8.94,77.78,77.78,0,0,0-11.48,2,45.84,45.84,0,0,1-.81-4.56,4.59,4.59,0,0,0,.26-8.47A6.94,6.94,0,0,1,697.07,65.62Zm-6.76,8.76a1.86,1.86,0,1,1,1.86,1.86A1.87,1.87,0,0,1,690.31,74.38ZM678.63,97.57c0-4.12,5.33-8.25,14-10.95a77.24,77.24,0,0,0,4,10.95,76.37,76.37,0,0,0-4,10.94C684,105.81,678.63,101.68,678.63,97.57Zm29.91,32.86a1.86,1.86,0,1,1,1.86-1.86A1.86,1.86,0,0,1,708.54,130.43Zm2.7-5.57a4.58,4.58,0,0,0-7.28,3.71,4.66,4.66,0,0,0,.06.76c-2.17.85-4.84,1.39-6.94.18-3.56-2.06-4.47-8.75-2.47-17.61a76.47,76.47,0,0,0,11.48,2,76.24,76.24,0,0,0,7.47,8.95C712.78,123.56,712,124.23,711.24,124.86Zm4.28-3.92a71.77,71.77,0,0,1-5.81-6.75c1.92.11,3.86.17,5.81.17s3.9-.06,5.82-.17A71.78,71.78,0,0,1,715.51,120.94ZM734,129.51c-3.56,2-9.81-.5-16.48-6.67a76.43,76.43,0,0,0,7.47-8.95,77.67,77.67,0,0,0,11.48-2C738.43,120.76,737.52,127.45,734,129.51Zm15-22.6a1.86,1.86,0,1,1,1.86-1.86A1.87,1.87,0,0,1,749,106.91Zm2.21-5.88a4.47,4.47,0,0,0-2.21-.57,4.59,4.59,0,0,0-4.46,5.66,42.89,42.89,0,0,1-6.12,2.39,76.17,76.17,0,0,0-4-10.94,77,77,0,0,0,4-10.95c8.68,2.7,14,6.83,14,10.95A6,6,0,0,1,751.18,101Z" style="fill:#1a7590"/></g><g style="opacity:0.400000005960465"><path d="M851.61,267.32l-2.66-.08,1.6-48.51,2.66.08a1.41,1.41,0,0,0,1.47-1.36l.34-10.19a1.42,1.42,0,0,0-1.38-1.46l-59.74-2a1.43,1.43,0,0,0-1.47,1.37l-.34,10.19a1.42,1.42,0,0,0,1.38,1.46l2.66.08-1.6,48.52-2.66-.09a1.42,1.42,0,0,0-1.47,1.37l-.34,10.18a1.42,1.42,0,0,0,1.38,1.46l59.74,2a1.42,1.42,0,0,0,1.47-1.37l.34-10.18A1.43,1.43,0,0,0,851.61,267.32ZM795,214.06l.24-7.35,56.9,1.87-.24,7.36L795,214.06Zm27,45.11a19.79,19.79,0,0,0-15.15,6.68l-4.19-.14c1-12.7,9.68-22.54,19.86-22.21s18.2,10.73,18.36,23.47l-4.19-.14A19.83,19.83,0,0,0,822,259.17Zm10.69,7.53L810.82,266a15.92,15.92,0,0,1,21.84.72Zm-6.81-30.28a1.43,1.43,0,0,0,1.28.91,1.34,1.34,0,0,0,.55-.09A16.19,16.19,0,0,0,834,232.7l3.24.11c-3.68,5-9,8.05-14.71,7.86s-10.81-3.59-14.16-8.81l21.68.71a12.26,12.26,0,0,1-3.44,2A1.4,1.4,0,0,0,825.85,236.42Zm10.26-6.48a24.65,24.65,0,0,0,3.05-7.3,1.42,1.42,0,0,0-2.77-.67,21.2,21.2,0,0,1-3.66,7.86L806.84,229a28.77,28.77,0,0,1-2.62-11.78l38.22,1.26A28.76,28.76,0,0,1,839.06,230Zm-29,5a21.72,21.72,0,0,0,8.38,6.92,21.83,21.83,0,0,0-8.82,6.36,30.14,30.14,0,0,0-6.88,17.41l-2.41-.08L799,217l2.41.08A30.14,30.14,0,0,0,807.1,234.93ZM838,249.24a21.81,21.81,0,0,0-8.38-6.92,21.83,21.83,0,0,0,8.81-6.36,30.14,30.14,0,0,0,6.88-17.41l2.41.08-1.6,48.51-2.41-.08A30.16,30.16,0,0,0,838,249.24Zm11.88,28.22h0L793,275.59l.24-7.35,56.9,1.87-.24,7.35Z" style="fill:#1a7590"/></g><g style="opacity:0.400000005960465"><path d="M871,460.49l-19.45-22.36L849,427.55a4.52,4.52,0,0,0-2.55-8.67l-14.71,3.59a4.53,4.53,0,0,0,1.74,8.88L836,441.93l-.25,1a22.87,22.87,0,0,0-12.59-6.48l-2.48-10.12a4.53,4.53,0,0,0-3.25-8.37l-14.71,3.59a4.53,4.53,0,0,0,1,8.93l2.48,10.12a22.63,22.63,0,0,0,26.11,37,6,6,0,0,0,4.1.43l31.45-7.68a6.07,6.07,0,0,0,3.13-9.87Zm-40.09-33.16a1.92,1.92,0,0,1,1.41-2.32l14.71-3.6a1.92,1.92,0,1,1,.91,3.73l-14.71,3.6A1.92,1.92,0,0,1,830.93,427.33Zm-29-.88a1.92,1.92,0,0,1,1.41-2.32l14.71-3.6a1.92,1.92,0,1,1,.91,3.73l-14.71,3.6A1.92,1.92,0,0,1,802,426.45Zm22.45,51.85a20,20,0,0,1-16-36,1.3,1.3,0,0,0,.53-1.39L806.32,430l11.91-2.91L820.88,438a1.31,1.31,0,0,0,1.11,1A20.18,20.18,0,0,1,835.05,446l-2.53,10.52c-.43-.07-.85-.17-1.28-.27a13.24,13.24,0,0,0-12.08,2.95,10.54,10.54,0,0,1-9.8,2.4,12.13,12.13,0,0,0-6.41,0,1.3,1.3,0,0,0-1,1.57,18.22,18.22,0,0,0,22,13.36,18,18,0,0,0,5.33-2.25,6,6,0,0,0,.89,1.6A20.13,20.13,0,0,1,824.42,478.3Zm4.68-7.56c0,.2-.08.4-.11.6a15.46,15.46,0,0,1-5.62,2.66,15.62,15.62,0,0,1-18.47-10.13,9.65,9.65,0,0,1,3.87.3,12.1,12.1,0,0,0,6.41,0,12.25,12.25,0,0,0,5.67-3,10.61,10.61,0,0,1,9.8-2.4c.4.09.82.19,1.26.27Zm40.63-5.22a3.41,3.41,0,0,1-2.47,2.3l-31.45,7.69a3.45,3.45,0,0,1-4.18-4.16l7-29.12a1.34,1.34,0,0,0,0-.62L836,430.75l10.47-2.56,2.66,10.87a1.31,1.31,0,0,0,.28.54l19.66,22.6A3.44,3.44,0,0,1,869.74,465.52Z" style="fill:#1a7590"/><path d="M1194.11,244.64l-19.45-22.36-2.59-10.58a4.52,4.52,0,0,0-2.55-8.67l-14.71,3.59a4.53,4.53,0,0,0,1.73,8.88l2.59,10.57-.25,1.05a22.9,22.9,0,0,0-12.59-6.48l-2.48-10.12a4.53,4.53,0,0,0-3.25-8.37l-14.7,3.59a4.53,4.53,0,0,0,1,8.93l2.47,10.12A22.63,22.63,0,0,0,1148.13,265a22.34,22.34,0,0,0,7.29-3.23,6,6,0,0,0,4.1.44L1191,254.5a6.06,6.06,0,0,0,3.14-9.86ZM1154,211.48a1.93,1.93,0,0,1,1.41-2.33l14.71-3.59a1.92,1.92,0,0,1,.91,3.73l-14.71,3.6A1.92,1.92,0,0,1,1154,211.48Zm-29-.88a1.94,1.94,0,0,1,1.41-2.33l14.71-3.59a1.92,1.92,0,1,1,.92,3.73l-14.71,3.6A1.94,1.94,0,0,1,1125.06,210.6Zm22.45,51.85a20,20,0,0,1-16-36,1.31,1.31,0,0,0,.54-1.39l-2.65-10.83,11.91-2.92,2.65,10.84a1.28,1.28,0,0,0,1.11,1,20.19,20.19,0,0,1,13.06,7.08l-2.53,10.51c-.43-.07-.85-.16-1.28-.26a13.17,13.17,0,0,0-12.08,3,10.61,10.61,0,0,1-9.8,2.4,12.11,12.11,0,0,0-6.41,0,1.31,1.31,0,0,0-1,1.58,18.22,18.22,0,0,0,27.33,11.11,5.94,5.94,0,0,0,.89,1.59A19.87,19.87,0,0,1,1147.51,262.45Zm4.68-7.56c-.05.2-.08.4-.11.6a15.23,15.23,0,0,1-5.62,2.65A15.62,15.62,0,0,1,1128,248a9.49,9.49,0,0,1,3.87.3,13.25,13.25,0,0,0,12.08-2.95,10.54,10.54,0,0,1,9.8-2.4c.41.09.82.19,1.26.26Zm40.64-5.23a3.44,3.44,0,0,1-2.48,2.31l-31.45,7.69a3.45,3.45,0,0,1-4.17-4.16l7-29.12a1.44,1.44,0,0,0,0-.62l-2.66-10.86,10.47-2.56,2.65,10.86a1.44,1.44,0,0,0,.28.55l19.66,22.6A3.44,3.44,0,0,1,1192.83,249.66Z" style="fill:#1a7590"/></g><g style="opacity:0.400000005960465"><path d="M1125,78.33a1.47,1.47,0,0,0-1.57-.31l-82.33,33.47a1.45,1.45,0,0,0-.1,2.65l20.76,10.35,5.45,14.51a1.46,1.46,0,0,0,1.37.94h.07a1.41,1.41,0,0,0,.9-.37h0l8.1-7.17L1098.86,143a1.47,1.47,0,0,0,.65.15,1.3,1.3,0,0,0,.52-.1,1.42,1.42,0,0,0,.84-.82l24.51-62.3A1.46,1.46,0,0,0,1125,78.33Zm-11.49,6.87-27.84,20.28-32.88,4.4Zm-9,10.18-15.6,14.39-.89-2.37Zm-57.93,18.27,34.19-4.57-17.62,12.83Zm23.6,13.71-1.78,6.42-3.57-9.49,20.73-15.11,1,2.73-16,14.77A1.44,1.44,0,0,0,1070.19,127.36Zm1.15,6.78,1.19-4.3,2.35,1.17Zm2.79-6.75,16.78-15.49,6.46,27.07Zm25.72,9.42-6.48-27.18,27-24.88Z" style="fill:#1a7590"/><path d="M731.71,342.26a1.48,1.48,0,0,0-.69-1.45L655.1,294.64a1.43,1.43,0,0,0-1.58,0,1.45,1.45,0,0,0-.61,1.45L657,319l-8.4,13a1.46,1.46,0,0,0,.06,1.66l0,.06a1.5,1.5,0,0,0,.83.5h0l10.58,2.24,4.14,23.29a1.56,1.56,0,0,0,.27.62,1.54,1.54,0,0,0,.39.36,1.49,1.49,0,0,0,1.16.18l64.63-17.43A1.47,1.47,0,0,0,731.71,342.26Zm-12.36-5.14-32.88-10.27-23.12-23.79Zm-13.55-1.19L684.94,332l1.38-2.13Zm-49.19-35.64,24,24.74-20.81-6.5Zm3,27.12-6.21,2.4,5.49-8.52,24.49,7.66-1.58,2.45-21.4-4.06A1.43,1.43,0,0,0,659.66,327.41Zm-4.76,5,4.16-1.61.46,2.59ZM662,330.6l22.43,4.25-17.89,21.31Zm7.76,26.27,18-21.4,36,6.83Z" style="fill:#1a7590"/></g><g style="opacity:0.400000005960465"><path d="M1034.26,860.25l-1.58-.83,1.83-3.48a1.41,1.41,0,0,0-.71-1.85l-28.48-14.95a7.33,7.33,0,0,1-9.26-4.86l-28.48-15a1.41,1.41,0,0,0-1.93.47l-1.83,3.48-1.58-.83a3.25,3.25,0,0,0-4.44,1.06l-21.37,40.73a3.25,3.25,0,0,0,1.64,4.26l48.46,25.43-2.79,5.32a1.29,1.29,0,0,0,.14,1.36,1.53,1.53,0,0,0,.57.49,1.5,1.5,0,0,0,.77.19l4.7,0,2.65,3.88a1.67,1.67,0,0,0,1.32.72,1.29,1.29,0,0,0,1.2-.66l2.79-5.32,12.21,6.41a3.24,3.24,0,0,0,4.44-1.07l21.38-40.72A3.25,3.25,0,0,0,1034.26,860.25Zm-35-17.63a3.53,3.53,0,0,1,4.83-1.16l27.16,14.25-19.68,37.49-30.47-16Zm-31.59-20.28,27.16,14.26a3.52,3.52,0,0,1,1.79,4.63l-18.16,34.59-30.47-16Zm-20.89,39.8,30.47,16L976,880.46l-30.47-16Zm21.5,19.27-29-15.23a.41.41,0,0,1-.22-.55l21.38-40.73a.43.43,0,0,1,.58-.14l1.58.83-20.28,38.65a1.41,1.41,0,0,0,.71,1.85l26.11,13.7Zm11.36,6-8.72-4.57.85-1.62,8.72,4.57Zm8.08,4.25-5.44-2.86.85-1.62,5.44,2.86Zm5.79,10.15h0l-1.7-2.48a1.67,1.67,0,0,0-1.37-.72h-3l3.78-7.2,6.08,3.19-3.78,7.2Zm-14.84-19.93,1.22-2.32,30.47,16-1.22,2.33Zm33.21,22a.43.43,0,0,1-.58.14l-12.21-6.41.85-1.62,9.31,4.88a1.4,1.4,0,0,0,1.93-.46l20.28-38.65,1.58.84a.42.42,0,0,1,.21.55l-21.38,40.73Z" style="fill:#1a7590"/></g><g style="opacity:0.400000005960465"><path d="M974,640.36l-.78-1.61,3.53-1.72a1.41,1.41,0,0,0,.52-1.91l-14.1-28.91a7.09,7.09,0,0,0-4.26-3.74,7.1,7.1,0,0,0-.32-5.66l-14.1-28.91a1.42,1.42,0,0,0-1.83-.77l-3.53,1.72-.79-1.6a3.24,3.24,0,0,0-4.21-1.77l-41.34,20.16a3.24,3.24,0,0,0-1.2,4.4l24,49.19-5.4,2.64a1.28,1.28,0,0,0-.69,1.18,1.67,1.67,0,0,0,.68,1.34l3.8,2.77-.16,4.69a1.67,1.67,0,0,0,.64,1.36,1.31,1.31,0,0,0,1.36.19l5.4-2.64,6,12.4a3.25,3.25,0,0,0,4.21,1.77l41.34-20.17A3.24,3.24,0,0,0,974,640.36Zm-17.76-34.93a3.53,3.53,0,0,1,4.58,1.92l13.45,27.57L936.2,653.48l-15.08-30.93Zm-13.45-35L956.23,598a3.53,3.53,0,0,1-1.3,4.79l-35.11,17.12-15.08-30.92Zm-40.4,19.7L917.46,621l-2.36,1.15L900,591.24Zm5.92,28.26L893.94,588.9a.43.43,0,0,1,.16-.58l41.34-20.16a.43.43,0,0,1,.55.23l.78,1.61-39.23,19.13A1.42,1.42,0,0,0,897,591l12.93,26.5Zm5.62,11.53L909.61,621l1.64-.8,4.32,8.85Zm4,8.21-2.69-5.53,1.64-.8,2.69,5.52Zm-1.35,11.61h0l.1-3a1.68,1.68,0,0,0-.68-1.39l-2.43-1.77,7.31-3.56,3,6.16-7.31,3.57Zm-.16-24.85,2.36-1.15,15.08,30.93-2.36,1.15Zm13.73,37.39a.41.41,0,0,1-.55-.23l-6-12.39,1.64-.81,4.61,9.45a1.41,1.41,0,0,0,1.83.77l39.23-19.13.78,1.61a.42.42,0,0,1-.16.57l-41.34,20.16Z" style="fill:#1a7590"/></g><g style="opacity:0.400000005960465"><path d="M755.13,644.76c0-5.54-5.84-10.46-16.07-13.59,2.4-10.43,1.06-17.95-3.74-20.72s-12-.17-19.81,7.12c-7.83-7.29-15-9.89-19.81-7.12-2.15,1.24-3.65,3.52-4.37,6.61a4.59,4.59,0,0,0-.27,9,48.79,48.79,0,0,0,.9,5.14c-10.23,3.13-16.07,8.05-16.07,13.59s5.84,10.45,16.07,13.59c-2.4,10.43-1.06,17.94,3.73,20.71a8.28,8.28,0,0,0,4.22,1.08,14.21,14.21,0,0,0,5.33-1.18,4.59,4.59,0,0,0,7.62-4.72c.88-.71,1.76-1.48,2.64-2.3,5.78,5.38,11.2,8.21,15.57,8.21a8.32,8.32,0,0,0,4.24-1.09c4.8-2.77,6.14-10.28,3.74-20.71a44.7,44.7,0,0,0,6.85-2.69,4.59,4.59,0,0,0,7.18-5.44A8.79,8.79,0,0,0,755.13,644.76ZM734,612.82c3.56,2.05,4.48,8.74,2.47,17.6a77.69,77.69,0,0,0-11.48-2,76.43,76.43,0,0,0-7.47-8.95C724.15,613.31,730.39,610.76,734,612.82Zm-33,40.34c1,1.69,2,3.35,3.06,4.94a69.87,69.87,0,0,1-8.75-1.66,72.23,72.23,0,0,1,2.94-8.41Q699.5,650.62,701,653.16Zm-5.69-20.09a71.73,71.73,0,0,1,8.75-1.66c-1.05,1.6-2.08,3.25-3.06,4.95s-1.9,3.4-2.76,5.12A71.41,71.41,0,0,1,695.27,633.07Zm8.06,18.72c-1.33-2.3-2.56-4.67-3.67-7,1.1-2.36,2.34-4.73,3.67-7s2.77-4.57,4.26-6.69a93.22,93.22,0,0,1,15.85,0c1.48,2.12,2.91,4.37,4.26,6.69s2.56,4.67,3.67,7c-1.11,2.37-2.34,4.73-3.67,7s-2.77,4.58-4.26,6.7a95.36,95.36,0,0,1-15.85,0C706.11,656.37,704.68,654.12,703.33,651.79Zm26.73,1.37q1.46-2.54,2.76-5.13a71.77,71.77,0,0,1,2.94,8.41A69.75,69.75,0,0,1,727,658.1C728.06,656.51,729.08,654.85,730.06,653.16Zm2.76-11.68c-.86-1.72-1.78-3.44-2.76-5.12s-2-3.35-3.06-4.95a71.64,71.64,0,0,1,8.75,1.66A71,71,0,0,1,732.82,641.48Zm-17.3-20.09a69.21,69.21,0,0,1,5.82,6.75,94,94,0,0,0-11.63,0A69.2,69.2,0,0,1,715.51,621.39Zm-18.44-8.57c3.56-2.06,9.81.49,16.48,6.66a76.43,76.43,0,0,0-7.47,8.95,77.82,77.82,0,0,0-11.48,2,45.35,45.35,0,0,1-.81-4.56,4.58,4.58,0,0,0,.26-8.46A6.94,6.94,0,0,1,697.07,612.82Zm-6.76,8.76a1.86,1.86,0,1,1,1.86,1.85A1.86,1.86,0,0,1,690.31,621.58Zm-11.68,23.18c0-4.11,5.33-8.25,14-10.94a77.13,77.13,0,0,0,4,10.94,76.81,76.81,0,0,0-4,10.94C684,653,678.63,648.87,678.63,644.76Zm29.91,32.86a1.85,1.85,0,1,1,1.86-1.85A1.86,1.86,0,0,1,708.54,677.62Zm2.7-5.57a4.59,4.59,0,0,0-7.28,3.72,4.63,4.63,0,0,0,.06.75c-2.17.86-4.84,1.39-6.94.18-3.56-2.06-4.47-8.74-2.47-17.61a76.43,76.43,0,0,0,11.48,2,77.07,77.07,0,0,0,7.47,9C712.78,670.75,712,671.43,711.24,672Zm4.28-3.92a71.79,71.79,0,0,1-5.81-6.75c1.92.12,3.86.18,5.81.18s3.9-.06,5.82-.18A71.8,71.8,0,0,1,715.51,668.13ZM734,676.7c-3.56,2.05-9.81-.5-16.48-6.67a76.3,76.3,0,0,0,7.47-8.94,76.34,76.34,0,0,0,11.48-2C738.43,668,737.52,674.64,734,676.7Zm15-22.6a1.86,1.86,0,1,1,1.86-1.86A1.86,1.86,0,0,1,749,654.1Zm2.21-5.88a4.59,4.59,0,0,0-6.67,5.09,41.72,41.72,0,0,1-6.12,2.39,77.05,77.05,0,0,0-4-10.94,76.92,76.92,0,0,0,4-10.94c8.68,2.69,14,6.83,14,10.94A6,6,0,0,1,751.18,648.22Z" style="fill:#1a7590"/></g><g style="opacity:0.400000005960465"><path d="M851.61,814.52l-2.66-.09,1.6-48.51,2.66.09a1.43,1.43,0,0,0,1.47-1.37l.34-10.19a1.42,1.42,0,0,0-1.38-1.46l-59.74-2a1.41,1.41,0,0,0-1.47,1.36l-.34,10.19a1.42,1.42,0,0,0,1.38,1.46l2.66.09-1.6,48.51-2.66-.09a1.43,1.43,0,0,0-1.47,1.37l-.34,10.19a1.42,1.42,0,0,0,1.38,1.46l59.74,2a1.41,1.41,0,0,0,1.47-1.36L853,816A1.42,1.42,0,0,0,851.61,814.52ZM795,761.26l.24-7.36,56.9,1.87-.24,7.36L795,761.26Zm27,45.1A19.86,19.86,0,0,0,806.82,813l-4.19-.13c1-12.7,9.68-22.55,19.86-22.22s18.2,10.74,18.36,23.47l-4.19-.13A19.84,19.84,0,0,0,822,806.36Zm10.69,7.54-21.84-.72a15.89,15.89,0,0,1,21.84.72Zm-6.81-30.28a1.43,1.43,0,0,0,1.28.91,1.54,1.54,0,0,0,.55-.1A16.16,16.16,0,0,0,834,779.9l3.24.1c-3.68,5-9,8-14.71,7.87s-10.81-3.6-14.16-8.82l21.68.72a12.47,12.47,0,0,1-3.44,2A1.42,1.42,0,0,0,825.85,783.62Zm10.26-6.49a24.54,24.54,0,0,0,3.05-7.3,1.42,1.42,0,0,0-2.77-.66,21.15,21.15,0,0,1-3.66,7.85l-25.89-.85a28.72,28.72,0,0,1-2.62-11.77l38.22,1.25a28.71,28.71,0,0,1-3.39,11.58Zm-29,5a21.81,21.81,0,0,0,8.38,6.92,21.8,21.8,0,0,0-8.82,6.35,30.19,30.19,0,0,0-6.88,17.41l-2.41-.08,1.6-48.51,2.41.08A30.17,30.17,0,0,0,807.1,782.13ZM838,796.43a21.81,21.81,0,0,0-8.38-6.92,21.8,21.8,0,0,0,8.81-6.35,30.19,30.19,0,0,0,6.88-17.41l2.41.08-1.6,48.51-2.41-.08A30.17,30.17,0,0,0,838,796.43Zm11.88,28.23h0L793,822.79l.24-7.36,56.9,1.87-.24,7.36Z" style="fill:#1a7590"/></g><g style="opacity:0.400000005960465"><path d="M820.22,956.8l-19.45-22.37-2.59-10.57a4.53,4.53,0,0,0-2.55-8.68l-14.71,3.6a4.52,4.52,0,0,0,1.74,8.87l2.59,10.58-.25,1a22.79,22.79,0,0,0-12.59-6.47l-2.48-10.13a4.53,4.53,0,0,0-3.25-8.37L752,917.9a4.53,4.53,0,0,0,1,8.92l2.48,10.12a22.63,22.63,0,0,0,18.82,40.19,22.35,22.35,0,0,0,7.29-3.22,6.08,6.08,0,0,0,4.1.44l31.45-7.69a6.06,6.06,0,0,0,3.13-9.86Zm-40.09-33.17a1.92,1.92,0,0,1,1.41-2.32l14.71-3.6a1.92,1.92,0,0,1,.91,3.74L782.46,925A1.92,1.92,0,0,1,780.13,923.63Zm-29-.88a1.92,1.92,0,0,1,1.41-2.32l14.71-3.6a1.92,1.92,0,0,1,.91,3.74l-14.71,3.59A1.92,1.92,0,0,1,751.18,922.75Zm22.45,51.85a20,20,0,0,1-16-36,1.29,1.29,0,0,0,.53-1.38l-2.65-10.84,11.91-2.91,2.65,10.83a1.3,1.3,0,0,0,1.11,1,20.18,20.18,0,0,1,13.06,7.07l-2.53,10.52c-.43-.07-.85-.17-1.28-.27a12.23,12.23,0,0,0-6.41,0,12.06,12.06,0,0,0-5.67,3,10.57,10.57,0,0,1-9.8,2.39,12.24,12.24,0,0,0-6.41,0,1.3,1.3,0,0,0-1,1.57,18.22,18.22,0,0,0,22,13.36,18,18,0,0,0,5.33-2.25,6,6,0,0,0,.89,1.6A19.85,19.85,0,0,1,773.63,974.6Zm4.68-7.56a6,6,0,0,0-.11.61,15.44,15.44,0,0,1-5.62,2.65,15.61,15.61,0,0,1-18.47-10.13,9.83,9.83,0,0,1,3.87.3,13.17,13.17,0,0,0,12.08-2.95,10.61,10.61,0,0,1,9.8-2.4c.4.1.82.19,1.26.27Zm40.63-5.22a3.43,3.43,0,0,1-2.47,2.31L785,971.82a3.46,3.46,0,0,1-4.18-4.17l7-29.12a1.3,1.3,0,0,0,0-.61L785.2,927l10.47-2.55,2.66,10.86a1.25,1.25,0,0,0,.28.54l19.66,22.61A3.42,3.42,0,0,1,818.94,961.82Z" style="fill:#1a7590"/><path d="M1218,798.71l-19.45-22.37L1196,765.77a4.53,4.53,0,0,0-2.56-8.68l-14.71,3.6a4.52,4.52,0,0,0,1.74,8.87l2.58,10.58-.25,1a22.85,22.85,0,0,0-12.59-6.47l-2.48-10.13a4.53,4.53,0,0,0-3.24-8.37l-14.71,3.6a4.53,4.53,0,0,0,1,8.92l2.48,10.13a22.63,22.63,0,0,0,26.1,37,6.05,6.05,0,0,0,4.11.44l31.45-7.69a6.06,6.06,0,0,0,3.13-9.86Zm-40.09-33.17a1.92,1.92,0,0,1,1.41-2.32l14.71-3.6a1.92,1.92,0,0,1,.91,3.74l-14.71,3.59A1.91,1.91,0,0,1,1177.89,765.54Zm-28.95-.88a1.92,1.92,0,0,1,1.41-2.32l14.71-3.6a1.92,1.92,0,0,1,.91,3.74l-14.71,3.59A1.91,1.91,0,0,1,1148.94,764.66Zm22.45,51.85a20,20,0,0,1-16-36,1.31,1.31,0,0,0,.54-1.39l-2.65-10.84,11.91-2.91,2.65,10.84a1.29,1.29,0,0,0,1.11,1,20.2,20.2,0,0,1,13.07,7.07l-2.54,10.52c-.43-.07-.85-.16-1.28-.26a13.17,13.17,0,0,0-12.08,2.95,10.61,10.61,0,0,1-9.8,2.4,12.11,12.11,0,0,0-6.41,0,1.31,1.31,0,0,0-1,1.58,18.22,18.22,0,0,0,27.33,11.11,6.1,6.1,0,0,0,.89,1.59A19.64,19.64,0,0,1,1171.39,816.51Zm4.68-7.56c-.05.21-.09.41-.12.61a15.23,15.23,0,0,1-5.62,2.65,15.61,15.61,0,0,1-18.46-10.13,9.59,9.59,0,0,1,3.86.31,12.24,12.24,0,0,0,6.41,0,12,12,0,0,0,5.67-3,10.58,10.58,0,0,1,9.81-2.39c.4.09.81.18,1.25.26Zm40.63-5.22a3.43,3.43,0,0,1-2.47,2.31l-31.45,7.69a3.46,3.46,0,0,1-4.18-4.17l7-29.12a1.26,1.26,0,0,0,0-.61L1183,769l10.47-2.56,2.65,10.86a1.33,1.33,0,0,0,.29.55l19.65,22.6A3.41,3.41,0,0,1,1216.7,803.73Z" style="fill:#1a7590"/></g><g style="opacity:0.400000005960465"><path d="M1134.67,649.66a1.47,1.47,0,0,0-1.58-.31l-82.32,33.47a1.45,1.45,0,0,0-.1,2.64l20.76,10.35,5.45,14.51a1.47,1.47,0,0,0,1.37,1h.06a1.45,1.45,0,0,0,.9-.36h0l8.1-7.16,21.16,10.55a1.51,1.51,0,0,0,.65.15,1.59,1.59,0,0,0,.53-.09,1.44,1.44,0,0,0,.83-.83l24.51-62.3A1.46,1.46,0,0,0,1134.67,649.66Zm-11.5,6.86-27.84,20.29-32.87,4.4Zm-9,10.18-15.6,14.4-.89-2.38ZM1056.21,685l34.19-4.58-17.62,12.84Zm23.6,13.7L1078,705.1l-3.57-9.49,20.73-15.11,1,2.73-16,14.77A1.49,1.49,0,0,0,1079.81,698.68Zm1.15,6.78,1.19-4.3,2.35,1.17Zm2.79-6.75,16.78-15.48,6.46,27.06Zm25.72,9.42L1103,681l27-24.89Z" style="fill:#1a7590"/><path d="M731.71,889.46A1.46,1.46,0,0,0,731,888L655.1,841.83a1.45,1.45,0,0,0-2.19,1.49L657,866.16l-8.4,13a1.46,1.46,0,0,0,.06,1.66l0,.05a1.39,1.39,0,0,0,.83.5h0l10.58,2.23,4.14,23.29a1.45,1.45,0,0,0,.27.62,1.54,1.54,0,0,0,.39.36,1.45,1.45,0,0,0,1.16.18l64.63-17.43A1.44,1.44,0,0,0,731.71,889.46Zm-12.36-5.15L686.48,874l-23.12-23.78Zm-13.55-1.18-20.85-4,1.38-2.14Zm-49.19-35.64,24,24.73-20.81-6.5Zm3,27.12L653.45,877l5.49-8.51,24.49,7.65-1.58,2.45-21.4-4.06A1.44,1.44,0,0,0,659.66,874.61Zm-4.76,5,4.16-1.6.46,2.58Zm7.09-1.78L684.42,882l-17.89,21.32Zm7.76,26.27,18-21.39,36,6.83Z" style="fill:#1a7590"/></g><g style="opacity:0.400000005960465"><path d="M597.36,672.47l-2.32.59-11-42.5,2.31-.6a1.28,1.28,0,0,0,.92-1.56l-2.3-8.93a1.29,1.29,0,0,0-1.56-.92l-52,13.45a1.27,1.27,0,0,0-.92,1.56l2.31,8.92a1.27,1.27,0,0,0,1.56.92l2.31-.6,11,42.51-2.31.6a1.27,1.27,0,0,0-.92,1.56l2.31,8.92a1.27,1.27,0,0,0,1.56.92l52-13.44a1.28,1.28,0,0,0,.92-1.56l-2.31-8.93A1.28,1.28,0,0,0,597.36,672.47ZM535,640.6l-1.67-6.44,49.55-12.81,1.67,6.45L535,640.6Zm34.77,32.3a17.81,17.81,0,0,0-11.37,9.64l-3.65.95c-2.37-11.28,2.61-22,11.48-24.32s18.43,4.7,21.82,15.72l-3.65.94A17.81,17.81,0,0,0,569.73,672.9Zm11.14,3.83-19,4.91a14.24,14.24,0,0,1,19-4.91Zm-13.59-24.55a1.27,1.27,0,0,0,1.34.46,1.19,1.19,0,0,0,.45-.22,14.55,14.55,0,0,0,4.33-5.55l2.82-.73c-1.9,5.27-5.67,9.26-10.68,10.55s-10.24-.37-14.45-4L570,647.76a11.24,11.24,0,0,1-2.45,2.63A1.28,1.28,0,0,0,567.27,652.18Zm7.2-8.23a22.3,22.3,0,0,0,.77-7.11,1.28,1.28,0,1,0-2.56.12,19.28,19.28,0,0,1-1.16,7.75L549,650.54a26.15,26.15,0,0,1-5.26-9.56l33.29-8.6a26.11,26.11,0,0,1,0,10.91Zm-23.75,11.69a19.54,19.54,0,0,0,9,3.88,19.63,19.63,0,0,0-6,7.75,27.4,27.4,0,0,0-1.5,16.86l-2.1.54-11-42.51,2.1-.54A27.38,27.38,0,0,0,550.72,655.64ZM581,660.23a19.67,19.67,0,0,0-9-3.89,19.59,19.59,0,0,0,6-7.74,27.4,27.4,0,0,0,1.5-16.86l2.1-.54,11,42.5-2.1.55A27.34,27.34,0,0,0,581,660.23Zm17.43,21.48h0l-49.55,12.8-1.67-6.44,49.55-12.81,1.67,6.45Z" style="fill:#1a7590"/></g></g><g style="opacity:0.5"><g style="opacity:0.400000005960465"><path d="M542.53,332.08,552,304l7.81-7.59a4.52,4.52,0,0,0,6.19-6.59l-10.55-10.87a4.53,4.53,0,0,0-6.77,6l-7.81,7.59-1,.31a22.87,22.87,0,0,0-.79-14.14l7.48-7.26a4.53,4.53,0,0,0,5.57-7l-10.55-10.86a4.53,4.53,0,0,0-7.2,5.37l-7.48,7.26a22.63,22.63,0,0,0-18.65,41.23,6,6,0,0,0,1.7,3.76l22.56,23.23a6.06,6.06,0,0,0,10.09-2.3Zm8.3-51.36a1.92,1.92,0,0,1,2.72,0l10.55,10.86a1.92,1.92,0,1,1-2.76,2.68l-10.55-10.86A1.93,1.93,0,0,1,550.82,280.72Zm-13.9-25.41a1.92,1.92,0,0,1,2.72,0l10.55,10.86a1.92,1.92,0,1,1-2.76,2.68L536.88,258A1.93,1.93,0,0,1,536.92,255.31Zm-33.34,45.61a20,20,0,0,1,23-32,1.31,1.31,0,0,0,1.47-.24l8-7.78,8.54,8.8-8,7.77a1.3,1.3,0,0,0-.29,1.46,20.21,20.21,0,0,1,.52,14.85l-10.35,3.14c-.16-.41-.29-.82-.42-1.24a13.16,13.16,0,0,0-8.66-8.92,10.6,10.6,0,0,1-7-7.24,12.19,12.19,0,0,0-3.22-5.55,1.31,1.31,0,0,0-1.84,0,18.21,18.21,0,0,0-.38,25.73,18,18,0,0,0,4.63,3.46,6,6,0,0,0-.92,1.58A19.94,19.94,0,0,1,503.58,300.92Zm8.89.21a5.64,5.64,0,0,0-.58.21,15.42,15.42,0,0,1-5.13-3.5,15.63,15.63,0,0,1-.62-21.06,9.69,9.69,0,0,1,1.7,3.49,13.17,13.17,0,0,0,8.66,8.92,10.6,10.6,0,0,1,7,7.24c.13.4.25.8.41,1.22Zm25.08,32.39a3.43,3.43,0,0,1-3.24-1l-22.56-23.23a3.45,3.45,0,0,1,1.47-5.71l28.66-8.7a1.35,1.35,0,0,0,.53-.31l8-7.79,7.51,7.73-8,7.79a1.25,1.25,0,0,0-.33.52l-9.54,28.39A3.43,3.43,0,0,1,537.55,333.52Z" style="fill:#1a7590"/></g><g style="opacity:0.400000005960465"><path d="M231.19,300.32l-1.19-1.4,3.05-2.73a1.49,1.49,0,0,0,0-2.07L211.68,269a7.07,7.07,0,0,0-5.18-2.56,7.4,7.4,0,0,0-1.77-5.6l-21.4-25.1a1.41,1.41,0,0,0-2-.25l-3.05,2.73-1.19-1.39a3.24,3.24,0,0,0-4.62-.59l-35.73,32a3.45,3.45,0,0,0-.05,4.77l36.41,42.7-4.67,4.18a1.37,1.37,0,0,0-.38,1.38,1.71,1.71,0,0,0,.36.69,1.66,1.66,0,0,0,.66.47l4.47,1.71,1,4.77a1.71,1.71,0,0,0,1,1.19,1.33,1.33,0,0,0,1.39-.2l4.67-4.18,9.18,10.76a3.25,3.25,0,0,0,4.62.58l35.73-32A3.45,3.45,0,0,0,231.19,300.32ZM204.62,270.2a3.53,3.53,0,0,1,5,.64l20.4,23.93-32.89,29.44-22.89-26.84Zm-22.33-31.46,20.4,23.94a3.75,3.75,0,0,1-.06,5.19L172.29,295,149.4,268.19ZM147.37,270l22.89,26.85-2,1.82-22.89-26.85Zm13.13,26.75-21.8-25.56a.46.46,0,0,1,0-.63l35.73-32a.42.42,0,0,1,.6.07l1.19,1.4-33.9,30.35a1.5,1.5,0,0,0,0,2.08l19.62,23Zm8.53,10-6.55-7.68,1.42-1.27,6.55,7.68Zm6.07,7.13L171,309.1l1.42-1.27,4.09,4.8ZM176.76,326h0l-.67-3a1.7,1.7,0,0,0-1-1.21l-2.86-1.09,6.32-5.66,4.56,5.36L176.76,326ZM170.21,301l2-1.83L195.13,326l-2,1.83Zm23.22,33.74a.43.43,0,0,1-.61-.08l-9.17-10.76,1.42-1.27,7,8.2a1.41,1.41,0,0,0,2,.25L228,300.74l1.19,1.39a.46.46,0,0,1,0,.63l-35.73,32Z" style="fill:#1a7590"/></g><g style="opacity:0.400000005960465"><path d="M248,141.49l-1.41-1.23,2.57-3.09a1.51,1.51,0,0,0-.32-2.06l-25.31-22a7.32,7.32,0,0,0-5.55-1.85,7.65,7.65,0,0,0-2.68-5.31L190,83.87a1.41,1.41,0,0,0-2,0L185.41,87,184,85.75a3.27,3.27,0,0,0-4.67,0L149.22,122a3.45,3.45,0,0,0,.73,4.72L193,164.23,189.07,169a1.36,1.36,0,0,0-.15,1.42,1.78,1.78,0,0,0,.47.63,1.62,1.62,0,0,0,.73.38l4.71,1.11,1.82,4.58a1.78,1.78,0,0,0,1.17,1.05,1.29,1.29,0,0,0,1.34-.38L203.1,173,214,182.47a3.27,3.27,0,0,0,4.67,0l30.12-36.25A3.46,3.46,0,0,0,248,141.49Zm-31.25-26.34a3.56,3.56,0,0,1,5.08,0l24.14,21-27.72,33.37-27.07-23.58Zm-27.28-28.2,24.13,21a3.77,3.77,0,0,1,.8,5.14L188.83,143.9l-27.07-23.58ZM160,122.38,187.12,146,185.4,148l-27.07-23.58Zm17.4,24.75-25.78-22.45a.46.46,0,0,1-.1-.62l30.12-36.25a.43.43,0,0,1,.61,0L183.7,89l-28.58,34.4a1.5,1.5,0,0,0,.32,2.05l23.2,20.21Zm10.09,8.79-7.75-6.75,1.2-1.44,7.75,6.75Zm7.18,6.25L189.88,158l1.2-1.44,4.84,4.21Zm3.62,11.72h0L197.17,171A1.75,1.75,0,0,0,196,169.9l-3-.71,5.33-6.41,5.4,4.7-5.33,6.41Zm-10.59-23.82,1.72-2.07,27.07,23.58-1.72,2.06Zm28.53,30.34a.44.44,0,0,1-.61,0L204.81,171l1.2-1.44,8.27,7.21a1.42,1.42,0,0,0,2,0l28.58-34.4,1.41,1.23a.46.46,0,0,1,.1.62l-30.12,36.24Z" style="fill:#1a7590"/></g><g style="opacity:0.400000005960465"><path d="M180.33,497.14c2.1-5.42-1.59-12.38-10.12-19.21,6.23-9.32,7.8-17.16,4.29-21.64S163.2,451.72,153,456c-4.68-10-10.51-15.2-16.12-14.25-2.51.42-4.8,2.1-6.66,4.86a4.85,4.85,0,0,0-3.65,8.68,52,52,0,0,0-1.08,5.35c-10.91-.69-18.32,2-20.42,7.39s1.59,12.38,10.12,19.21c-6.23,9.32-7.8,17.17-4.29,21.64a8.22,8.22,0,0,0,3.6,2.6,14,14,0,0,0,5.51.81,4.57,4.57,0,0,0,2.6,2.57,4.75,4.75,0,0,0,6.1-2.8,4.93,4.93,0,0,0,.33-1.59c1.1-.37,2.23-.8,3.38-1.27,3.45,7.38,7.53,12.14,11.68,13.75a8.3,8.3,0,0,0,4.44.49c5.61-.94,9.72-7.8,11.39-18.89a44.41,44.41,0,0,0,7.53-.11,4.58,4.58,0,0,0,2.46,2.27,4.76,4.76,0,0,0,6.1-2.8,4.91,4.91,0,0,0,.32-2.15A9.38,9.38,0,0,0,180.33,497.14Zm-8-39c2.61,3.33.94,10.21-4.32,18.14a76.38,76.38,0,0,0-10.15-6.17,79.3,79.3,0,0,0-3.71-11.5C162.81,455,169.71,454.78,172.31,458.1ZM125.7,485.45c.29,2,.63,4,1,6a70.66,70.66,0,0,1-7.69-4.84,76.28,76.28,0,0,1,6-7.15C125.19,481.42,125.41,483.44,125.7,485.45Zm2.2-21.75a71.27,71.27,0,0,1,8.94,1.6c-1.61,1.17-3.21,2.41-4.78,3.71s-3.09,2.63-4.56,4A76.64,76.64,0,0,1,127.9,463.7Zm.57,21.28c-.39-2.74-.67-5.51-.82-8.23,1.94-1.91,4-3.77,6.15-5.53s4.37-3.46,6.58-5a92.52,92.52,0,0,1,15.06,5.83c.6,2.62,1.11,5.34,1.51,8.11s.67,5.52.82,8.24c-1.95,1.9-4,3.76-6.15,5.53s-4.37,3.45-6.58,5A92.22,92.22,0,0,1,130,493.1C129.37,490.48,128.86,487.75,128.46,485Zm24.88,11.16c1.56-1.29,3.09-2.62,4.56-4a76.55,76.55,0,0,1-.39,9.31,71.22,71.22,0,0,1-8.94-1.59C150.17,498.68,151.77,497.44,153.34,496.14Zm7-10.41c-.16-2-.39-4-.68-6s-.63-4-1-6a72.09,72.09,0,0,1,7.69,4.85A76.43,76.43,0,0,1,160.38,485.73Zm-8.83-26a74.08,74.08,0,0,1,3,8.74,95.21,95.21,0,0,0-11-4.27A72.57,72.57,0,0,1,151.55,459.71Zm-14.28-15.17c4.16-.7,9.13,4.1,13.13,12.59a79.44,79.44,0,0,0-10.48,6,77.34,77.34,0,0,0-11.66-2.27c.26-1.68.58-3.27,1-4.75a4.87,4.87,0,0,0,3.46-8.19A7.31,7.31,0,0,1,137.28,444.54Zm-9.74,6.09a1.89,1.89,0,1,1,1.06,2.5A1.92,1.92,0,0,1,127.53,450.63ZM107.66,469c1.56-4,8.19-6.11,17.46-5.56a82.22,82.22,0,0,0-.33,12.18,82.54,82.54,0,0,0-8,9.23C109.61,479,106.1,473,107.66,469Zm16,43.15A2,2,0,1,1,126.1,511,1.92,1.92,0,0,1,123.63,512.17Zm4.67-4.46a4.55,4.55,0,0,0-2.23-1.85,4.76,4.76,0,0,0-6.1,2.8,5.21,5.21,0,0,0-.23.77c-2.38,0-5.13-.42-6.66-2.38-2.6-3.32-.94-10.2,4.32-18.14a75.53,75.53,0,0,0,10.15,6.18,80.06,80.06,0,0,0,3.71,11.5C130.26,507,129.27,507.38,128.3,507.71Zm5.55-2.26a75,75,0,0,1-3-8.75c1.78.82,3.6,1.6,5.46,2.31s3.72,1.38,5.59,2A76.06,76.06,0,0,1,133.85,505.45Zm14.28,15.16C144,521.31,139,516.52,135,508a79.72,79.72,0,0,0,10.48-6,76.2,76.2,0,0,0,11.66,2.27C155.69,513.7,152.29,519.91,148.13,520.61ZM170.95,504a2,2,0,1,1,2.47-1.14A1.92,1.92,0,0,1,170.95,504Zm4.32-4.94a4.47,4.47,0,0,0-1.88-1.37,4.76,4.76,0,0,0-6.1,2.8,5,5,0,0,0-.28,1.09,41.29,41.29,0,0,1-6.72.09,82,82,0,0,0,.33-12.18,82.72,82.72,0,0,0,8-9.23c7.23,5.83,10.73,11.83,9.17,15.86A6.46,6.46,0,0,1,175.27,499.08Z" style="fill:#1a7590"/></g><g style="opacity:0.400000005960465"><path d="M397.56,79.78c2.1-5.42-1.59-12.38-10.12-19.21,6.23-9.32,7.8-17.16,4.29-21.64s-11.31-4.57-21.51-.31c-4.68-10-10.51-15.2-16.12-14.25-2.51.42-4.79,2.1-6.66,4.86a4.84,4.84,0,0,0-3.65,8.67,52.82,52.82,0,0,0-1.09,5.36c-10.91-.69-18.32,2-20.42,7.39S323.88,63,332.42,69.86c-6.23,9.32-7.8,17.17-4.3,21.64a8.22,8.22,0,0,0,3.6,2.6,14,14,0,0,0,5.51.81,4.57,4.57,0,0,0,2.6,2.57,4.75,4.75,0,0,0,6.1-2.8,4.93,4.93,0,0,0,.33-1.59c1.1-.37,2.23-.8,3.38-1.27,3.45,7.38,7.53,12.14,11.69,13.75a8.3,8.3,0,0,0,4.43.49c5.61-.94,9.72-7.8,11.39-18.89a44.4,44.4,0,0,0,7.53-.11,4.58,4.58,0,0,0,2.46,2.27,4.76,4.76,0,0,0,6.1-2.8,4.9,4.9,0,0,0,.32-2.15A9.38,9.38,0,0,0,397.56,79.78Zm-8-39c2.61,3.33.94,10.2-4.32,18.14a76.36,76.36,0,0,0-10.15-6.17,79.4,79.4,0,0,0-3.71-11.5C380,37.62,386.94,37.42,389.54,40.74ZM342.93,68.09c.29,2,.63,4,1,6a70.64,70.64,0,0,1-7.69-4.84,76.3,76.3,0,0,1,6-7.15C342.41,64.06,342.64,66.08,342.93,68.09Zm2.19-21.75a73.06,73.06,0,0,1,8.94,1.59c-1.61,1.18-3.21,2.42-4.78,3.72s-3.09,2.63-4.56,4A76.66,76.66,0,0,1,345.12,46.34Zm.57,21.28c-.39-2.75-.67-5.51-.82-8.23,1.94-1.91,4-3.77,6.15-5.53s4.37-3.46,6.58-5a92.53,92.53,0,0,1,15.06,5.83c.61,2.62,1.11,5.34,1.51,8.11s.67,5.52.82,8.24c-1.95,1.9-4,3.76-6.15,5.53s-4.37,3.45-6.58,5a93.16,93.16,0,0,1-15.06-5.82C346.6,73.12,346.09,70.39,345.69,67.62Zm24.88,11.16c1.56-1.29,3.09-2.62,4.56-4a76.64,76.64,0,0,1-.39,9.31,71.26,71.26,0,0,1-8.94-1.59C367.4,81.32,369,80.08,370.57,78.78Zm7-10.41c-.17-2-.39-4-.68-6s-.64-4-1-6a73.63,73.63,0,0,1,7.69,4.84A75.17,75.17,0,0,1,377.61,68.37Zm-8.83-26a74,74,0,0,1,3,8.74,95.19,95.19,0,0,0-11-4.27A72.54,72.54,0,0,1,368.78,42.35ZM354.5,27.18c4.16-.7,9.13,4.1,13.14,12.59a79.4,79.4,0,0,0-10.48,6,77.33,77.33,0,0,0-11.66-2.27c.26-1.68.58-3.27,1-4.75a4.87,4.87,0,0,0,3.46-8.19A7.31,7.31,0,0,1,354.5,27.18Zm-9.74,6.09a1.89,1.89,0,1,1,1.06,2.5A1.92,1.92,0,0,1,344.76,33.27ZM324.89,51.66c1.56-4,8.19-6.11,17.46-5.56A82.21,82.21,0,0,0,342,58.28a82.51,82.51,0,0,0-8,9.23C326.83,61.69,323.33,55.68,324.89,51.66Zm16,43.15a2,2,0,1,1,2.47-1.14A1.93,1.93,0,0,1,340.86,94.81Zm4.67-4.46a4.55,4.55,0,0,0-2.23-1.85,4.76,4.76,0,0,0-6.1,2.8,5.21,5.21,0,0,0-.23.77c-2.38,0-5.12-.42-6.66-2.38-2.6-3.32-.94-10.2,4.32-18.14a75.56,75.56,0,0,0,10.15,6.18,80.21,80.21,0,0,0,3.71,11.5C347.49,89.65,346.5,90,345.53,90.35Zm5.55-2.26a75,75,0,0,1-3-8.75c1.78.82,3.6,1.6,5.46,2.31s3.72,1.38,5.59,2A76,76,0,0,1,351.08,88.09Zm14.28,15.16c-4.16.7-9.13-4.09-13.13-12.58a79.77,79.77,0,0,0,10.48-6,76.19,76.19,0,0,0,11.66,2.27C372.92,96.34,369.52,102.55,365.35,103.25Zm22.82-16.59a2,2,0,1,1,2.47-1.14A1.93,1.93,0,0,1,388.17,86.66Zm4.33-5a4.54,4.54,0,0,0-1.88-1.36,4.76,4.76,0,0,0-6.1,2.8,5,5,0,0,0-.28,1.09,41.29,41.29,0,0,1-6.72.09,82.07,82.07,0,0,0,.33-12.18,82.82,82.82,0,0,0,8-9.23C393,68.75,396.52,74.75,395,78.78A6.38,6.38,0,0,1,392.5,81.71Z" style="fill:#1a7590"/></g><g style="opacity:0.400000005960465"><path d="M588.67,152.67c2.1-5.42-1.59-12.38-10.12-19.21,6.23-9.32,7.8-17.16,4.3-21.64s-11.31-4.57-21.51-.31c-4.68-10-10.51-15.2-16.12-14.25-2.51.42-4.8,2.1-6.66,4.86a4.84,4.84,0,0,0-3.65,8.67,52.27,52.27,0,0,0-1.08,5.36c-10.91-.69-18.32,2-20.42,7.39s1.59,12.38,10.12,19.21c-6.23,9.32-7.8,17.16-4.29,21.64a8.22,8.22,0,0,0,3.6,2.6,14.17,14.17,0,0,0,5.51.81,4.57,4.57,0,0,0,2.6,2.57,4.76,4.76,0,0,0,6.1-2.8,4.93,4.93,0,0,0,.33-1.59c1.1-.37,2.23-.8,3.38-1.28,3.45,7.39,7.53,12.15,11.68,13.76a8.3,8.3,0,0,0,4.44.49c5.61-.94,9.72-7.8,11.39-18.89a45.47,45.47,0,0,0,7.53-.11,4.58,4.58,0,0,0,2.46,2.27,4.75,4.75,0,0,0,6.1-2.81,4.87,4.87,0,0,0,.32-2.14A9.42,9.42,0,0,0,588.67,152.67Zm-8-39c2.61,3.33.94,10.2-4.32,18.14a77.46,77.46,0,0,0-10.15-6.18,80.08,80.08,0,0,0-3.71-11.5C571.14,110.51,578,110.31,580.65,113.63ZM534,141c.29,2,.64,4,1,6a70.67,70.67,0,0,1-7.69-4.84,76.3,76.3,0,0,1,6-7.15C533.52,136.95,533.75,139,534,141Zm2.2-21.75a71.15,71.15,0,0,1,8.94,1.59c-1.61,1.18-3.21,2.42-4.78,3.72s-3.09,2.63-4.56,4A76.44,76.44,0,0,1,536.23,119.23Zm.57,21.28c-.39-2.75-.67-5.51-.82-8.23,1.95-1.91,4-3.77,6.15-5.54s4.37-3.45,6.58-5a92.52,92.52,0,0,1,15.06,5.83c.6,2.62,1.11,5.34,1.51,8.11s.67,5.51.82,8.23c-1.95,1.91-4,3.77-6.15,5.54s-4.37,3.45-6.58,5a92.25,92.25,0,0,1-15.06-5.83C537.7,146,537.19,143.28,536.8,140.51Zm24.88,11.16c1.56-1.29,3.09-2.63,4.56-4a76.45,76.45,0,0,1-.39,9.31,71.23,71.23,0,0,1-8.94-1.59C558.5,154.21,560.1,153,561.67,151.67Zm7-10.41c-.16-2-.39-4-.68-6s-.63-4-1-6a70.56,70.56,0,0,1,7.69,4.84A76.45,76.45,0,0,1,568.71,141.26Zm-8.83-26a74,74,0,0,1,3,8.74,97.16,97.16,0,0,0-11-4.28A74.05,74.05,0,0,1,559.88,115.24Zm-14.28-15.17c4.16-.7,9.13,4.09,13.13,12.58a80.65,80.65,0,0,0-10.48,6,76.11,76.11,0,0,0-11.66-2.27c.26-1.68.58-3.27,1-4.76a4.87,4.87,0,0,0,3.46-8.18A7.31,7.31,0,0,1,545.61,100.07Zm-9.74,6.08a1.9,1.9,0,1,1,1.06,2.51A1.92,1.92,0,0,1,535.86,106.15ZM516,124.55c1.56-4,8.19-6.11,17.46-5.56a82.18,82.18,0,0,0-.33,12.18,82.63,82.63,0,0,0-8,9.23C517.94,134.57,514.44,128.57,516,124.55Zm16,43.15a2,2,0,1,1,2.47-1.14A1.92,1.92,0,0,1,532,167.7Zm4.67-4.46a4.55,4.55,0,0,0-2.23-1.85,4.76,4.76,0,0,0-6.1,2.8,5.09,5.09,0,0,0-.23.76c-2.38,0-5.13-.41-6.66-2.37-2.6-3.33-.94-10.2,4.32-18.14a76.59,76.59,0,0,0,10.15,6.18,80.08,80.08,0,0,0,3.71,11.5C538.59,162.53,537.6,162.91,536.63,163.24Zm5.55-2.27a74,74,0,0,1-3-8.74c1.78.82,3.6,1.59,5.46,2.31s3.72,1.38,5.59,2A74.16,74.16,0,0,1,542.18,161Zm14.27,15.17c-4.16.7-9.13-4.09-13.13-12.58a80.86,80.86,0,0,0,10.49-6,76.15,76.15,0,0,0,11.66,2.27C564,169.23,560.62,175.43,556.46,176.14Zm22.82-16.59a2,2,0,1,1,2.47-1.14A1.93,1.93,0,0,1,579.28,159.55Zm4.32-4.95a4.53,4.53,0,0,0-1.88-1.36,4.75,4.75,0,0,0-6.1,2.8,4.89,4.89,0,0,0-.28,1.09,41.29,41.29,0,0,1-6.72.09,81.94,81.94,0,0,0,.33-12.18,82.61,82.61,0,0,0,8-9.23c7.23,5.83,10.73,11.83,9.17,15.86A6.39,6.39,0,0,1,583.6,154.6Z" style="fill:#1a7590"/></g><g style="opacity:0.400000005960465"><path d="M80,83.46,77.54,82.4,97.43,35.52l2.49,1.06a1.46,1.46,0,0,0,1.91-.79L106,25.94a1.46,1.46,0,0,0-.75-1.93L49.24.11a1.47,1.47,0,0,0-1.91.79l-4.18,9.85a1.46,1.46,0,0,0,.75,1.93l2.49,1.07L26.51,60.64,24,59.57a1.47,1.47,0,0,0-1.91.8l-4.18,9.84a1.47,1.47,0,0,0,.75,1.94L74.7,96a1.46,1.46,0,0,0,1.91-.8l4.18-9.84A1.48,1.48,0,0,0,80,83.46ZM46.4,10.53l3-7.11,53.35,22.75-3,7.11L46.4,10.53ZM55,64.59c-5.23-2.23-11.21-1.88-16.93,1L34.1,63.88c5.76-12.06,17.74-18.51,27.28-14.43s13.23,17.19,8.56,29.71L66,77.48C64.09,71.38,60.19,66.82,55,64.59Zm7.3,11.3L41.78,67.15a16.43,16.43,0,0,1,12,.17A16.51,16.51,0,0,1,62.26,75.89Zm5-32.13a1.45,1.45,0,0,0,.88,1.36,1.49,1.49,0,0,0,.56.11,16.58,16.58,0,0,0,7.76-2.1l3,1.3C74.11,48,67.94,49,62.55,46.71s-8.91-7.49-10.11-13.82l20.33,8.67a12.88,12.88,0,0,1-4,.71A1.5,1.5,0,0,0,67.26,43.76Zm12.21-2.57a26.36,26.36,0,0,0,5.67-6,1.49,1.49,0,0,0-.35-2.06,1.45,1.45,0,0,0-2,.39,22.41,22.41,0,0,1-6.46,6.34L52,29.48A30.87,30.87,0,0,1,54,17L89.83,32.28a30.8,30.8,0,0,1-7.6,10.08ZM50,35.4a22.42,22.42,0,0,0,5.34,9.86,22.26,22.26,0,0,0-10.78,3A32.17,32.17,0,0,0,31.43,62.74l-2.26-1L49.06,14.9l2.26,1A32.27,32.27,0,0,0,50,35.4ZM73.93,60.75a22.38,22.38,0,0,0-5.34-9.85,22.25,22.25,0,0,0,10.78-3A32.22,32.22,0,0,0,92.5,33.42l2.26,1L74.87,81.26l-2.26-1A32.3,32.3,0,0,0,73.93,60.75Zm.6,32h0L21.17,70l3-7.11L77.54,85.63l-3,7.11Z" style="fill:#1a7590"/></g><g style="opacity:0.400000005960465"><path d="M325.81,475.15l-2-1.79,32.7-38.83,2,1.79a1.44,1.44,0,0,0,2-.17l6.87-8.15a1.5,1.5,0,0,0-.14-2.09l-46-40.22a1.44,1.44,0,0,0-2,.17L312.37,394a1.5,1.5,0,0,0,.14,2.09l2,1.78-32.7,38.83-2-1.79a1.43,1.43,0,0,0-2,.18l-6.87,8.15a1.5,1.5,0,0,0,.14,2.09l46,40.22a1.43,1.43,0,0,0,2-.18l6.87-8.15A1.5,1.5,0,0,0,325.81,475.15ZM315.51,394.8l5-5.89,43.81,38.3-5,5.89-43.81-38.3Zm-7.87,54.5c-4.29-3.75-10.07-5.27-16.32-4.3l-3.23-2.83c9-9.78,22.27-12.26,30.11-5.41s7.44,20.58-.68,31.15l-3.23-2.83C314.28,458.64,311.94,453,307.65,449.3Zm3.57,13.09-16.82-14.7a16.3,16.3,0,0,1,11.34,3.87A16.93,16.93,0,0,1,311.22,462.39Zm14.23-29.28a1.49,1.49,0,0,0,.43,1.58,1.3,1.3,0,0,0,.5.28,16.21,16.21,0,0,0,8,.39l2.5,2.18c-6.15,1.72-12.3.83-16.73-3.05s-6.23-9.93-5.49-16.38l16.69,14.6a12.37,12.37,0,0,1-4-.57A1.47,1.47,0,0,0,325.45,433.11Zm12.32,1.31a25.44,25.44,0,0,0,7.15-4,1.51,1.51,0,0,0,.27-2.08,1.42,1.42,0,0,0-2-.25,21.9,21.9,0,0,1-8,4.08l-19.93-17.42a31,31,0,0,1,5.56-11.37l29.43,25.73A30.11,30.11,0,0,1,340,436.4Zm-26.19-14.64a22.92,22.92,0,0,0,2.15,11.09,21.82,21.82,0,0,0-11.09-.47,31.41,31.41,0,0,0-16.73,9.86L284,438.64l32.7-38.83,1.85,1.62A32.58,32.58,0,0,0,311.58,419.78Zm15.16,31.7a23,23,0,0,0-2.14-11.1,21.7,21.7,0,0,0,11.09.47A31.45,31.45,0,0,0,352.42,431l1.85,1.62-32.7,38.82-1.85-1.62A32.51,32.51,0,0,0,326.74,451.48Zm-8.89,30.86h0L274,444l5-5.89,43.81,38.31-5,5.88Z" style="fill:#1a7590"/></g><g style="opacity:0.400000005960465"><path d="M519.24,465.76l-10-29,1.55-11.3a4.78,4.78,0,0,0,4.8-4.16,4.62,4.62,0,0,0-3.94-5.27l-15.34-1.89a4.77,4.77,0,0,0-5.23,4.14,4.63,4.63,0,0,0,3.52,5.19L493,434.73l-.63.93a23,23,0,0,0-9.51-11l1.48-10.82a4.81,4.81,0,0,0,4-4.12,4.61,4.61,0,0,0-3.94-5.26l-15.33-1.89a4.76,4.76,0,0,0-5.23,4.13,4.65,4.65,0,0,0,2.78,5l-1.48,10.82a23.59,23.59,0,0,0-11,6.9,24.25,24.25,0,0,0-6.05,13c-1.77,13,7.06,24.75,19.7,26.31a22.78,22.78,0,0,0,8.15-.48,5.94,5.94,0,0,0,3.73,1.94l32.79,4a6.2,6.2,0,0,0,5.65-2.37A6.46,6.46,0,0,0,519.24,465.76Zm-25.53-47.19a2,2,0,0,1,2.22-1.75l15.34,1.89a2,2,0,0,1,1.67,2.23,2,2,0,0,1-2.22,1.76l-15.34-1.89A2,2,0,0,1,493.71,418.57Zm-27.17-11.5a2,2,0,0,1,2.22-1.76l15.34,1.89a2,2,0,0,1,1.67,2.24,2,2,0,0,1-2.22,1.75l-15.34-1.89A2,2,0,0,1,466.54,407.07Zm1.69,59a20.39,20.39,0,0,1-17.43-23.27,21.44,21.44,0,0,1,5.35-11.53,20.87,20.87,0,0,1,10.53-6.33,1.38,1.38,0,0,0,1-1.16l1.59-11.57,12.42,1.52-1.59,11.58a1.33,1.33,0,0,0,.69,1.37,20.45,20.45,0,0,1,9.73,11.73l-6.39,9.36c-.39-.23-.75-.48-1.12-.73a12,12,0,0,0-6.08-2.4,12.44,12.44,0,0,0-6.52.84,9.61,9.61,0,0,1-5.29.7,9.46,9.46,0,0,1-4.93-2,12,12,0,0,0-6.08-2.4,1.38,1.38,0,0,0-1.51,1.19,18.54,18.54,0,0,0,15.84,21.16,18.29,18.29,0,0,0,5.91-.24,6.38,6.38,0,0,0,.24,1.89A19.71,19.71,0,0,1,468.23,466Zm7.31-5.67c-.12.18-.23.36-.33.55a15.63,15.63,0,0,1-6.34.53,15.85,15.85,0,0,1-13.71-16.7,9.56,9.56,0,0,1,3.56,1.71,12,12,0,0,0,6.07,2.4,12.34,12.34,0,0,0,6.52-.84,9.6,9.6,0,0,1,5.29-.7,9.38,9.38,0,0,1,4.93,2c.35.24.7.48,1.09.72Zm40.58,9.82a3.54,3.54,0,0,1-3.22,1.36l-32.79-4a3.46,3.46,0,0,1-2.75-2.09,3.66,3.66,0,0,1,.36-3.52L495.4,436a1.43,1.43,0,0,0,.23-.6l1.59-11.61,10.91,1.35-1.59,11.6a1.39,1.39,0,0,0,.06.64l10.12,29.34A3.67,3.67,0,0,1,516.12,470.2Z" style="fill:#1a7590"/></g><g style="opacity:0.400000005960465"><path d="M412,223.32a1.46,1.46,0,0,0-1.38-.88l-90.88,2.48a1.54,1.54,0,0,0-1.1,2.55l15.8,17.76-.31,16.2a1.51,1.51,0,0,0,.94,1.43l.06,0a1.48,1.48,0,0,0,1,0h0l10.41-4,16.11,18.11a1.5,1.5,0,0,0,.56.39,1.39,1.39,0,0,0,.53.1,1.52,1.52,0,0,0,1.11-.5L411.77,225A1.54,1.54,0,0,0,412,223.32Zm-13.52,2.49-34.13,9.61-32.9-7.78Zm-12.43,6.64-20.27,8.35.05-2.65Zm-62-3.42,34.21,8.09-21.6,6.09Zm17.23,22.09-4.12,5.62.21-10.59L362.87,239l-.06,3.05L342,250.61A1.47,1.47,0,0,0,341.36,251.12Zm-1.47,7.06,2.76-3.77,1.79,2Zm5.21-5.59,21.8-9-4.11,28.86ZM366,271.27l4.13-29,35-14.43Z" style="fill:#1a7590"/></g><g style="opacity:0.400000005960465"><path d="M231.19,900.51,230,899.12l3.05-2.74a1.49,1.49,0,0,0,0-2.07l-21.4-25.1a7.06,7.06,0,0,0-5.18-2.55,7.39,7.39,0,0,0-1.77-5.6L183.33,836a1.42,1.42,0,0,0-2-.26l-3.05,2.74-1.19-1.4a3.25,3.25,0,0,0-4.62-.59l-35.73,32a3.45,3.45,0,0,0-.05,4.77l36.41,42.7-4.67,4.18a1.39,1.39,0,0,0-.38,1.39,1.74,1.74,0,0,0,1,1.16l4.47,1.7,1,4.77a1.69,1.69,0,0,0,1,1.19,1.29,1.29,0,0,0,1.39-.2l4.67-4.18,9.18,10.76a3.25,3.25,0,0,0,4.62.59l35.73-32A3.45,3.45,0,0,0,231.19,900.51Zm-26.57-30.12a3.54,3.54,0,0,1,5,.64L230.05,895l-32.89,29.45-22.89-26.85Zm-22.33-31.45,20.4,23.93a3.75,3.75,0,0,1-.06,5.19l-30.35,27.17L149.4,868.39ZM147.37,870.2,170.26,897l-2,1.83L145.33,872ZM160.5,897l-21.8-25.57a.45.45,0,0,1,0-.62l35.73-32a.43.43,0,0,1,.6.08l1.19,1.39-33.9,30.36a1.49,1.49,0,0,0,0,2.07l19.62,23ZM169,907l-6.55-7.68,1.42-1.27,6.55,7.68Zm6.07,7.12L171,909.3l1.42-1.27,4.09,4.79Zm1.65,12.07h0l-.67-3.05a1.68,1.68,0,0,0-1-1.21l-2.86-1.09,6.32-5.66,4.56,5.35-6.32,5.66Zm-6.56-25,2-1.82,22.89,26.85-2,1.82Zm23.22,33.74a.42.42,0,0,1-.61-.08l-9.17-10.76,1.42-1.27,7,8.2a1.41,1.41,0,0,0,2,.26L228,900.93l1.19,1.4a.45.45,0,0,1,0,.62l-35.73,32Z" style="fill:#1a7590"/></g><g style="opacity:0.400000005960465"><path d="M248,688.68l-1.41-1.22,2.57-3.1a1.5,1.5,0,0,0-.32-2.05l-25.31-22a7.33,7.33,0,0,0-5.55-1.86,7.67,7.67,0,0,0-2.68-5.31l-25.31-22a1.42,1.42,0,0,0-2,0l-2.57,3.1L184,632.94a3.27,3.27,0,0,0-4.67,0l-30.12,36.25a3.46,3.46,0,0,0,.73,4.72L193,711.43l-3.94,4.74a1.35,1.35,0,0,0-.15,1.41,1.82,1.82,0,0,0,.47.64,1.85,1.85,0,0,0,.73.38l4.71,1.1,1.82,4.58a1.78,1.78,0,0,0,1.17,1,1.28,1.28,0,0,0,1.34-.37l3.94-4.74L214,729.67a3.27,3.27,0,0,0,4.67,0l30.12-36.25A3.46,3.46,0,0,0,248,688.68Zm-31.25-26.33a3.56,3.56,0,0,1,5.08,0l24.13,21-27.72,33.36-27.07-23.58Zm-27.28-28.21,24.13,21a3.77,3.77,0,0,1,.8,5.14l-25.58,30.79-27.07-23.58ZM160,669.57l27.07,23.58-1.72,2.07-27.07-23.58Zm17.4,24.75-25.78-22.45a.46.46,0,0,1-.1-.62L181.68,635a.43.43,0,0,1,.61,0l1.41,1.23-28.58,34.39a1.51,1.51,0,0,0,.32,2.06l23.2,20.2Zm10.09,8.79-7.75-6.74,1.2-1.45,7.75,6.75Zm7.18,6.26-4.84-4.21,1.2-1.44,4.84,4.21Zm3.62,11.71h0l-1.17-2.93a1.79,1.79,0,0,0-1.22-1.06l-3-.71,5.32-6.41,5.4,4.7-5.33,6.41Zm-10.59-23.82,1.72-2.07,27.07,23.58-1.72,2.07Zm28.53,30.35a.43.43,0,0,1-.61,0l-10.85-9.45,1.2-1.44,8.27,7.2a1.41,1.41,0,0,0,2,0l28.58-34.39,1.41,1.22a.46.46,0,0,1,.1.62l-30.12,36.25Z" style="fill:#1a7590"/></g><g style="opacity:0.400000005960465"><path d="M420.69,605.49c2.1-5.42-1.59-12.38-10.12-19.21,6.23-9.32,7.8-17.17,4.29-21.64s-11.31-4.57-21.51-.32c-4.68-10-10.51-15.19-16.12-14.25-2.51.43-4.8,2.1-6.66,4.86a4.85,4.85,0,0,0-3.65,8.68,52.28,52.28,0,0,0-1.09,5.36c-10.91-.7-18.32,2-20.42,7.39s1.59,12.37,10.12,19.2c-6.23,9.33-7.8,17.17-4.3,21.64a8.32,8.32,0,0,0,3.6,2.61,14.16,14.16,0,0,0,5.51.81,4.63,4.63,0,0,0,2.6,2.57,4.75,4.75,0,0,0,6.1-2.81,4.88,4.88,0,0,0,.33-1.58c1.1-.37,2.23-.8,3.38-1.28,3.45,7.39,7.53,12.14,11.68,13.75a8.31,8.31,0,0,0,4.44.5c5.61-1,9.72-7.81,11.39-18.89a44.36,44.36,0,0,0,7.53-.12,4.54,4.54,0,0,0,2.46,2.27,4.75,4.75,0,0,0,6.1-2.8,4.9,4.9,0,0,0,.32-2.15A9.41,9.41,0,0,0,420.69,605.49Zm-8-39c2.61,3.32.94,10.2-4.32,18.13a76.43,76.43,0,0,0-10.15-6.17,80.2,80.2,0,0,0-3.71-11.5C403.16,563.33,410.06,563.13,412.67,566.45Zm-46.61,27.34q.43,3,1,6a70.67,70.67,0,0,1-7.69-4.84,77.6,77.6,0,0,1,6-7.15C365.54,589.77,365.77,591.79,366.06,593.79Zm2.2-21.74a69.43,69.43,0,0,1,8.94,1.59c-1.61,1.17-3.21,2.42-4.78,3.71s-3.09,2.64-4.56,4A76.57,76.57,0,0,1,368.25,572Zm.57,21.27c-.39-2.74-.67-5.51-.82-8.23,1.94-1.9,4-3.76,6.15-5.53s4.37-3.46,6.58-5a93.46,93.46,0,0,1,15.06,5.83c.61,2.62,1.11,5.35,1.51,8.12s.67,5.51.82,8.23c-1.95,1.91-4,3.77-6.15,5.53s-4.37,3.46-6.58,5a93.21,93.21,0,0,1-15.06-5.83C369.72,598.82,369.22,596.09,368.82,593.32Zm24.88,11.17c1.56-1.29,3.09-2.63,4.56-4a76.74,76.74,0,0,1-.39,9.31,71.34,71.34,0,0,1-8.94-1.6C390.53,607,392.13,605.79,393.7,604.49Zm7-10.41c-.16-2-.39-4-.68-6s-.64-4-1-6a70.45,70.45,0,0,1,7.68,4.84A76.43,76.43,0,0,1,400.73,594.08Zm-8.83-26a74.21,74.21,0,0,1,3,8.75,97.09,97.09,0,0,0-11-4.28A74.2,74.2,0,0,1,391.91,568Zm-14.28-15.16c4.16-.7,9.13,4.09,13.13,12.58a79.57,79.57,0,0,0-10.48,6,76.11,76.11,0,0,0-11.66-2.27c.26-1.69.58-3.28,1-4.76a4.87,4.87,0,0,0,3.45-8.19A7.3,7.3,0,0,1,377.63,552.89ZM367.89,559a1.89,1.89,0,1,1,1.06,2.5A1.92,1.92,0,0,1,367.89,559ZM348,577.36c1.56-4,8.19-6.11,17.46-5.55a82.18,82.18,0,0,0-.33,12.18,81.65,81.65,0,0,0-8,9.23C350,587.39,346.46,581.39,348,577.36Zm16,43.15a1.95,1.95,0,1,1,2.47-1.13A1.92,1.92,0,0,1,364,620.51Zm4.67-4.46a4.59,4.59,0,0,0-2.23-1.84,4.82,4.82,0,0,0-6.32,3.56c-2.38,0-5.12-.42-6.66-2.38-2.6-3.32-.94-10.2,4.32-18.13a76.58,76.58,0,0,0,10.15,6.17,80.21,80.21,0,0,0,3.71,11.5C370.62,615.35,369.63,615.73,368.66,616Zm5.55-2.26a74.22,74.22,0,0,1-3-8.74c1.78.82,3.6,1.59,5.46,2.31s3.72,1.37,5.59,2A74.29,74.29,0,0,1,374.21,613.79Zm14.28,15.16c-4.16.7-9.13-4.09-13.13-12.58a79.66,79.66,0,0,0,10.48-6,76.14,76.14,0,0,0,11.66,2.26C396,622,392.64,628.25,388.48,628.95Zm22.82-16.59a1.95,1.95,0,1,1,2.47-1.13A1.92,1.92,0,0,1,411.3,612.36Zm4.32-4.94a4.64,4.64,0,0,0-1.88-1.37,4.75,4.75,0,0,0-6.1,2.81,4.89,4.89,0,0,0-.28,1.09,43.68,43.68,0,0,1-6.72.09,82,82,0,0,0,.33-12.18,81.92,81.92,0,0,0,8-9.24c7.23,5.83,10.73,11.84,9.17,15.86A6.35,6.35,0,0,1,415.63,607.42Z" style="fill:#1a7590"/></g><g style="opacity:0.400000005960465"><path d="M75.84,614.62c2.1-5.42-1.59-12.38-10.12-19.21,6.23-9.32,7.8-17.16,4.29-21.64s-11.31-4.57-21.51-.31c-4.68-10-10.51-15.2-16.12-14.25-2.51.42-4.8,2.1-6.66,4.86a4.85,4.85,0,0,0-3.65,8.68A52,52,0,0,0,21,578.1c-10.91-.69-18.32,2-20.42,7.39S2.16,597.87,10.7,604.7C4.47,614,2.9,621.87,6.4,626.34a8.22,8.22,0,0,0,3.6,2.6,14,14,0,0,0,5.51.81,4.57,4.57,0,0,0,2.6,2.57,4.75,4.75,0,0,0,6.1-2.8,4.93,4.93,0,0,0,.33-1.59c1.1-.37,2.23-.8,3.38-1.27,3.45,7.38,7.53,12.14,11.68,13.75a8.41,8.41,0,0,0,4.44.5c5.61-1,9.72-7.81,11.39-18.9A44.42,44.42,0,0,0,63,621.9a4.58,4.58,0,0,0,2.46,2.27,4.76,4.76,0,0,0,6.1-2.8,4.91,4.91,0,0,0,.32-2.15A9.38,9.38,0,0,0,75.84,614.62Zm-8-39c2.61,3.32.94,10.2-4.32,18.13a76.38,76.38,0,0,0-10.15-6.17A79.32,79.32,0,0,0,49.64,576C58.32,572.46,65.22,572.26,67.82,575.59ZM21.21,602.93q.43,3,1,6A70.67,70.67,0,0,1,14.56,604a76.27,76.27,0,0,1,6-7.15C20.7,598.9,20.92,600.92,21.21,602.93Zm2.2-21.75a71.26,71.26,0,0,1,8.94,1.6c-1.61,1.17-3.21,2.41-4.78,3.71s-3.09,2.63-4.56,4A76.59,76.59,0,0,1,23.41,581.18ZM24,602.46c-.39-2.74-.67-5.51-.82-8.23,1.94-1.91,4-3.77,6.15-5.53s4.37-3.46,6.58-5a92.51,92.51,0,0,1,15.06,5.83c.6,2.62,1.11,5.34,1.51,8.11s.67,5.52.82,8.24c-1.95,1.9-4,3.76-6.15,5.53s-4.37,3.46-6.58,5a93.19,93.19,0,0,1-15.06-5.83C24.88,608,24.37,605.23,24,602.46Zm24.88,11.17c1.56-1.29,3.09-2.63,4.56-4a76.59,76.59,0,0,1-.39,9.31,71.22,71.22,0,0,1-8.94-1.59C45.68,616.16,47.28,614.92,48.85,613.63Zm7-10.42c-.16-2-.39-4-.68-6s-.63-4-1-6a72.09,72.09,0,0,1,7.69,4.85A76.41,76.41,0,0,1,55.89,603.21Zm-8.83-26a74.1,74.1,0,0,1,3,8.74,95.22,95.22,0,0,0-11-4.27A72.55,72.55,0,0,1,47.06,577.19ZM32.78,562c4.16-.71,9.13,4.09,13.13,12.58a79.44,79.44,0,0,0-10.48,6,76.05,76.05,0,0,0-11.66-2.26c.26-1.69.58-3.28,1-4.76a4.87,4.87,0,0,0,3.46-8.19A7.26,7.26,0,0,1,32.78,562ZM23,568.11a1.89,1.89,0,1,1,1.06,2.5A1.92,1.92,0,0,1,23,568.11ZM3.17,586.5c1.56-4,8.19-6.11,17.46-5.56a82.23,82.23,0,0,0-.33,12.18,82.53,82.53,0,0,0-8,9.23C5.12,596.53,1.61,590.52,3.17,586.5Zm16,43.15a2,2,0,1,1,2.47-1.13A1.92,1.92,0,0,1,19.14,629.65Zm4.67-4.46a4.55,4.55,0,0,0-2.23-1.85,4.83,4.83,0,0,0-6.32,3.57c-2.38,0-5.13-.42-6.66-2.38-2.6-3.32-.94-10.2,4.32-18.14a75.52,75.52,0,0,0,10.15,6.18,80.07,80.07,0,0,0,3.71,11.5C25.77,624.49,24.78,624.86,23.81,625.19Zm5.55-2.26a74.9,74.9,0,0,1-3-8.75c1.78.82,3.6,1.6,5.46,2.31s3.72,1.38,5.59,2A76,76,0,0,1,29.36,622.93Zm14.28,15.16c-4.16.7-9.13-4.09-13.13-12.58a79.72,79.72,0,0,0,10.48-6,76.2,76.2,0,0,0,11.66,2.27C51.2,631.18,47.8,637.39,43.64,638.09ZM66.46,621.5a2,2,0,1,1,2.47-1.14A1.92,1.92,0,0,1,66.46,621.5Zm4.32-4.94a4.47,4.47,0,0,0-1.88-1.37,4.76,4.76,0,0,0-6.1,2.8,5,5,0,0,0-.28,1.09,41.28,41.28,0,0,1-6.72.09A82,82,0,0,0,56.13,607a81.83,81.83,0,0,0,8-9.23c7.23,5.83,10.73,11.83,9.17,15.86A6.41,6.41,0,0,1,70.78,616.56Z" style="fill:#1a7590"/></g><g style="opacity:0.400000005960465"><path d="M436.64,933.93l-10-29,1.55-11.3a4.78,4.78,0,0,0,4.8-4.16,4.61,4.61,0,0,0-3.94-5.26l-15.33-1.89a4.76,4.76,0,0,0-5.23,4.13,4.63,4.63,0,0,0,3.52,5.19l-1.55,11.3-.63.93a23.06,23.06,0,0,0-9.51-11L401.78,882a4.8,4.8,0,0,0,4-4.12,4.61,4.61,0,0,0-3.94-5.26l-15.34-1.89a4.76,4.76,0,0,0-5.23,4.14,4.64,4.64,0,0,0,2.78,5l-1.48,10.82a23.67,23.67,0,0,0-11,6.9,24.28,24.28,0,0,0-6.05,13c-1.77,12.95,7.06,24.75,19.7,26.31a22.54,22.54,0,0,0,8.14-.47,6,6,0,0,0,3.73,1.93l32.79,4a6.2,6.2,0,0,0,5.65-2.37A6.46,6.46,0,0,0,436.64,933.93Zm-25.53-47.18a2,2,0,0,1,2.22-1.76l15.34,1.89a2,2,0,0,1,1.67,2.24,2,2,0,0,1-2.22,1.75L412.79,889A2,2,0,0,1,411.11,886.75Zm-27.17-11.51a2,2,0,0,1,2.22-1.75l15.34,1.89a2,2,0,0,1,1.67,2.23,2,2,0,0,1-2.22,1.75l-15.34-1.89A2,2,0,0,1,383.94,875.24Zm1.69,59a20.4,20.4,0,0,1-17.43-23.28,21.48,21.48,0,0,1,5.35-11.53,20.85,20.85,0,0,1,10.53-6.32,1.4,1.4,0,0,0,1-1.16l1.59-11.58,12.42,1.53-1.59,11.57a1.35,1.35,0,0,0,.68,1.38A20.39,20.39,0,0,1,408,906.56l-6.39,9.36c-.39-.23-.75-.48-1.12-.73a12,12,0,0,0-6.08-2.39,12.24,12.24,0,0,0-6.52.84,9.7,9.7,0,0,1-5.29.7,9.54,9.54,0,0,1-4.93-2,12,12,0,0,0-6.08-2.39,1.37,1.37,0,0,0-1.5,1.19,18.53,18.53,0,0,0,15.84,21.15,17.75,17.75,0,0,0,5.91-.24A6.34,6.34,0,0,0,392,934,20,20,0,0,1,385.63,934.23Zm7.31-5.68c-.12.18-.23.36-.33.55a15.63,15.63,0,0,1-6.34.53,15.84,15.84,0,0,1-13.71-16.7,9.57,9.57,0,0,1,3.56,1.72,12,12,0,0,0,6.08,2.39,12.24,12.24,0,0,0,6.52-.84,9.7,9.7,0,0,1,5.29-.7,9.55,9.55,0,0,1,4.93,2c.35.24.71.48,1.09.72Zm40.58,9.83a3.54,3.54,0,0,1-3.22,1.35l-32.79-4a3.42,3.42,0,0,1-2.75-2.09,3.67,3.67,0,0,1,.36-3.52l17.69-25.92a1.38,1.38,0,0,0,.23-.6l1.59-11.6,10.91,1.34-1.59,11.61a1.34,1.34,0,0,0,.06.63l10.12,29.35A3.68,3.68,0,0,1,433.52,938.38Z" style="fill:#1a7590"/></g><g style="opacity:0.400000005960465"><path d="M437.29,721.3a1.46,1.46,0,0,0-1.38-.89L345,722.89a1.55,1.55,0,0,0-1.1,2.56l15.8,17.75-.31,16.2a1.49,1.49,0,0,0,.94,1.43l.06,0a1.42,1.42,0,0,0,1,0h0l10.41-4,16.11,18.11a1.61,1.61,0,0,0,.56.39,1.37,1.37,0,0,0,.53.09,1.48,1.48,0,0,0,1.11-.5L437,722.95A1.54,1.54,0,0,0,437.29,721.3Zm-13.52,2.48-34.13,9.62-32.9-7.79Zm-12.43,6.65-20.27,8.35.05-2.66Zm-62-3.42,34.21,8.09L362,741.18Zm17.23,22.08-4.12,5.63.21-10.59L388.11,737l-.06,3-20.8,8.57A1.62,1.62,0,0,0,366.61,749.09Zm-1.47,7.06,2.76-3.77,1.79,2Zm5.21-5.58,21.8-9L388,770.45Zm20.87,18.68,4.13-29,35-14.43Z" style="fill:#1a7590"/></g></g></g></svg>