<svg id="Слой_1" data-name="Слой 1" xmlns="http://www.w3.org/2000/svg" viewBox="0 0 281.11 281.11"><title>phys</title><path d="M140.56,264.61c-30.63,0-54.62-54.49-54.62-124.07s24-124.05,54.62-124.05S195.17,71,195.17,140.55,171.18,264.61,140.56,264.61Zm0-239.42C115.67,25.2,94.64,78,94.64,140.55s21,115.35,45.91,115.35,45.91-52.82,45.91-115.35S165.44,25.2,140.56,25.2Z" style="fill:#fcd462"/><path d="M71.67,218.89c-18.35,0-32.22-5.32-38.56-16.31C17.8,176.05,53,128,113.24,93.25c28.18-16.28,57.41-27,82.3-30.12,26.15-3.33,44.81,2.14,52.45,15.38,15.31,26.53-19.89,74.55-80.13,109.33C132.57,208.23,97.63,218.89,71.67,218.89Zm45.92-118.1C63.45,132,28.21,176.67,40.65,198.22s68.71,13.35,122.86-17.92,89.39-75.88,76.94-97.43C234.76,73,218.78,69,196.64,71.75,172.87,74.78,144.8,85.08,117.6,100.79Z" style="fill:#eb4d38"/><path d="M209.68,218.91a112.63,112.63,0,0,1-14.14-.94c-24.89-3.16-54.12-13.85-82.3-30.13C53,153.07,17.8,105,33.11,78.51s74.51-20,134.75,14.74,95.44,82.8,80.13,109.33C241.81,213.3,228.43,218.91,209.68,218.91ZM71.1,70.83c-14.76,0-25.74,3.9-30.45,12-12.44,21.55,22.79,66.18,76.94,97.43,27.2,15.71,55.27,26,79,29,22.17,2.81,38.12-1.24,43.82-11.12,12.44-21.55-22.79-66.18-76.94-97.43C129.84,81.35,95.36,70.83,71.1,70.83Z" style="fill:#329cb8"/><path d="M140.55,159.19a18.64,18.64,0,1,0-18.65-18.64A18.64,18.64,0,0,0,140.55,159.19Z" style="fill:#64798a"/></svg>