<svg id="Слой_1" data-name="Слой 1" xmlns="http://www.w3.org/2000/svg" viewBox="0 0 281.11 281.11"><title>rus</title><path d="M236.51,27.95V253.16a6.94,6.94,0,0,1-6.94,6.94H65.92A6.94,6.94,0,0,1,59,253.16v-8.77l12.17,1c.22,0,.44,0,.65,0a7.92,7.92,0,0,0,.64-15.81L59,228.49V212.28l12.17,1c.22,0,.44,0,.65,0a7.92,7.92,0,0,0,.64-15.81L59,196.38V180.16l12.17,1c.22,0,.45,0,.67,0a7.92,7.92,0,0,0,.62-15.81L59,164.27V148.06l12.17,1c.22,0,.44,0,.65,0a7.92,7.92,0,0,0,.64-15.82L59,132.16V115.95l12.17,1c.22,0,.44,0,.65,0a7.92,7.92,0,0,0,.64-15.81L59,100.05V83.83l12.17,1c.22,0,.44,0,.65,0A7.92,7.92,0,0,0,72.44,69L59,67.94V51.72l12.17,1c.22,0,.45,0,.67,0a7.92,7.92,0,0,0,.62-15.81L59,35.83V27.95A6.94,6.94,0,0,1,65.92,21H229.58A6.94,6.94,0,0,1,236.51,27.95Z" style="fill:#ffd74b"/><path d="M80,260.1H65.92A6.94,6.94,0,0,1,59,253.16V27.95A6.94,6.94,0,0,1,65.92,21H80Z" style="fill:#fabd44"/><path d="M69.07,31.34a6,6,0,0,1-.47,12l-.51,0-9.23-.76-8.74-.71a6,6,0,0,1,.49-12l.5,0,7.76.63Z" style="fill:#868686"/><path d="M69.06,57.26a6,6,0,0,1-.48,12l-.5,0-9.23-.76-8.74-.72a6,6,0,0,1,.49-12l.5,0,7.76.63Z" style="fill:#868686"/><path d="M69.06,83.19a6,6,0,0,1-.48,12l-.5,0-9.23-.76-8.74-.72a6,6,0,0,1,.49-12l.5,0,7.76.63Z" style="fill:#868686"/><path d="M58.85,120.34l-8.74-.72a6,6,0,0,1,.48-12l.51,0,7.76.63,10.21.84a6,6,0,0,1-.48,12l-.5,0Z" style="fill:#868686"/><path d="M69.06,135a6,6,0,0,1-.47,12l-.51,0-9.23-.76-8.74-.71a6,6,0,0,1,.49-12l.5,0,7.76.63Z" style="fill:#868686"/><path d="M69.06,161a6,6,0,0,1-.48,12l-.5,0-9.23-.76-8.74-.72a6,6,0,0,1,.49-12l.5,0,7.76.63Z" style="fill:#868686"/><path d="M69.06,186.9a6,6,0,0,1-.48,12l-.5,0-9.23-.76-8.74-.72a6,6,0,0,1,.49-12l.5,0,7.76.63Z" style="fill:#868686"/><path d="M69.06,212.83a6,6,0,0,1-.47,12l-.51,0-9.23-.76-8.74-.71a6,6,0,0,1,.49-12l.5,0,7.76.63Z" style="fill:#868686"/><path d="M69.06,238.76a6,6,0,0,1-.48,12l-.5,0L58.85,250l-8.74-.72a6,6,0,0,1,.49-12l.5,0,7.76.63Z" style="fill:#868686"/><path d="M200.23,103.95H113.41v9.72h86.83Z" style="fill:#868686"/><path d="M200.23,125.11H113.4v9.72h86.83Z" style="fill:#868686"/><path d="M200.23,146.28H113.4V156h86.83Z" style="fill:#868686"/><path d="M200.23,167.44H113.4v9.72h86.83Z" style="fill:#868686"/></svg>