<svg id="Слой_1" data-name="Слой 1" xmlns="http://www.w3.org/2000/svg" viewBox="0 0 281.11 281.11"><title>soc</title><path d="M132.21,41.57A73.15,73.15,0,0,0,87.09,164.21c15.68,16.77,23.82,39.24,23.82,62.19v1.79h59.28V226.4c0-23.58,9.36-45.91,25-63.53a73.16,73.16,0,0,0-63-121.3Z" style="fill:#fcd462"/><path d="M143.55,13.66h-6V26.91h6Z" style="fill:#fcd462"/><path d="M241.17,111.29H227.92v6h13.24Z" style="fill:#fcd462"/><path d="M53.18,111.29H39.94v6H53.18Z" style="fill:#fcd462"/><path d="M204.44,54.61l9.37-9.36L209.57,41l-9.37,9.37Z" style="fill:#fcd462"/><path d="M71.52,187.51l9.37-9.36-4.23-4.24-9.37,9.37Z" style="fill:#fcd462"/><path d="M209.59,187.53l4.23-4.24-9.36-9.37-4.23,4.24Z" style="fill:#fcd462"/><path d="M76.66,54.61l4.23-4.24L71.53,41l-4.23,4.23Z" style="fill:#fcd462"/><path d="M170.19,228.19H110.91V260.7a1.68,1.68,0,0,0,1.68,1.68h55.92a1.68,1.68,0,0,0,1.68-1.68V228.19Z" style="fill:#64798a"/><path d="M169.39,228.2l-58.48,6.4a3.63,3.63,0,1,0,.79,7.22l58.48-6.4a3.63,3.63,0,1,0-.79-7.22Z" style="fill:#2f4859"/><path d="M169.4,240.76l-58.48,6.4a3.63,3.63,0,1,0,.79,7.22l58.48-6.4a3.63,3.63,0,1,0-.79-7.22Z" style="fill:#2f4859"/><path d="M169.4,253.31l-58.48,6.4a3.63,3.63,0,1,0,.79,7.22l58.48-6.4a3.63,3.63,0,0,0-.79-7.22Z" style="fill:#2f4859"/><path d="M127.08,262.29c0,2.85,6,5.15,13.48,5.15S154,265.14,154,262.29Z" style="fill:#2f4859"/><path d="M156.31,228.19l-4.58-.56,14.49-118-12.84,10.9-12.83-13.17-12.83,13.17-12.84-10.9,14.48,118-4.58.56L108.86,98.49l18.56,15.76,13.13-13.48,13.13,13.48,18.56-15.76Z" style="fill:#dc8744"/></svg>